<ttFont>
<head>
    <!-- Most of this table will be recalculated by the compiler -->
    <tableVersion value="1.0"/>
    <fontRevision value="2.01999"/>
    <checkSumAdjustment value="0x97e0a160"/>
    <magicNumber value="0x5f0f3cf5"/>
    <flags value="00000000 00000011"/>
    <unitsPerEm value="1000"/>
    <created value="Mon Sep 17 16:48:31 2018"/>
    <modified value="Mon Sep 17 16:48:31 2018"/>
    <xMin value="-454"/>
    <yMin value="-293"/>
    <xMax value="2159"/>
    <yMax value="968"/>
    <macStyle value="00000000 00000000"/>
    <lowestRecPPEM value="3"/>
    <fontDirectionHint value="2"/>
    <indexToLocFormat value="0"/>
    <glyphDataFormat value="0"/>
  </head>
          <CharString index="0">
            -105 callgsubr
            -211 102 -72 134 vhcurveto
            return
          </CharString>
          <CharString index="1">
            rmoveto
            37 42 -142 128 -47 -55 rlineto
            endchar
          </CharString>
          <CharString index="2">
            -12 rmoveto
            165 116 132 211 return
          </CharString>
          <CharString index="3">
            hhcurveto
            -103 callgsubr
            hvcurveto
            return
          </CharString>
        <CharString name=".notdef">
          95 89 hmoveto
          476 660 -476 hlineto
          108 -602 rmoveto
          74 132 54 103 -101 callgsubr
          52 -103 73 -132 rlineto
          -129 329 rmoveto
          -50 94 -66 119 rlineto
          235 hlineto
          -66 -119 -49 -94 rlineto
          -175 -277 rmoveto
          462 vlineto
          127 -232 rlineto
          217 -230 rmoveto
          -126 230 126 232 rlineto
          endchar
        </CharString>
        <CharString name="A">
          endchar
        </CharString>
        <CharString name="A.sc">
          endchar
        </CharString>
        <CharString name="A.sups">
          endchar
        </CharString>
        <CharString name="AE">
          endchar
        </CharString>
        <CharString name="AE.sc">
          endchar
        </CharString>
        <CharString name="Aacute">
          endchar
        </CharString>
        <CharString name="Aacute.sc">
          endchar
        </CharString>
        <CharString name="Abreve">
          endchar
        </CharString>
        <CharString name="Abreve.sc">
          endchar
        </CharString>
        <CharString name="Acircumflex">
          endchar
        </CharString>
        <CharString name="Acircumflex.sc">
          endchar
        </CharString>
        <CharString name="Adieresis">
          endchar
        </CharString>
        <CharString name="Adieresis.sc">
          endchar
        </CharString>
        <CharString name="Agrave">
          endchar
        </CharString>
        <CharString name="Agrave.sc">
          endchar
        </CharString>
        <CharString name="Alpha">
          endchar
        </CharString>
        <CharString name="Alpha.sc">
          endchar
        </CharString>
        <CharString name="Alphaiotasub.sc">
          endchar
        </CharString>
        <CharString name="Alphatonos">
          endchar
        </CharString>
        <CharString name="Amacron">
          endchar
        </CharString>
        <CharString name="Amacron.sc">
          endchar
        </CharString>
        <CharString name="Aogonek">
          endchar
        </CharString>
        <CharString name="Aogonek.sc">
          endchar
        </CharString>
        <CharString name="Aring">
          endchar
        </CharString>
        <CharString name="Aring.sc">
          endchar
        </CharString>
        <CharString name="Atilde">
          endchar
        </CharString>
        <CharString name="Atilde.sc">
          endchar
        </CharString>
        <CharString name="B">
          endchar
        </CharString>
        <CharString name="B.sc">
          endchar
        </CharString>
        <CharString name="B.sups">
          endchar
        </CharString>
        <CharString name="Beta">
          endchar
        </CharString>
        <CharString name="Beta.sc">
          endchar
        </CharString>
        <CharString name="C">
          endchar
        </CharString>
        <CharString name="C.sc">
          endchar
        </CharString>
        <CharString name="C.sups">
          endchar
        </CharString>
        <CharString name="Cacute">
          endchar
        </CharString>
        <CharString name="Cacute.sc">
          endchar
        </CharString>
        <CharString name="Ccaron">
          endchar
        </CharString>
        <CharString name="Ccaron.sc">
          endchar
        </CharString>
        <CharString name="Ccedilla">
          endchar
        </CharString>
        <CharString name="Ccedilla.sc">
          endchar
        </CharString>
        <CharString name="Ccircumflex">
          endchar
        </CharString>
        <CharString name="Ccircumflex.sc">
          endchar
        </CharString>
        <CharString name="Cdotaccent">
          endchar
        </CharString>
        <CharString name="Cdotaccent.sc">
          endchar
        </CharString>
        <CharString name="Chi">
          endchar
        </CharString>
        <CharString name="Chi.sc">
          endchar
        </CharString>
        <CharString name="D">
          endchar
        </CharString>
        <CharString name="D.sc">
          endchar
        </CharString>
        <CharString name="D.sups">
          endchar
        </CharString>
        <CharString name="Dcaron">
          endchar
        </CharString>
        <CharString name="Dcaron.sc">
          endchar
        </CharString>
        <CharString name="Dcroat">
          endchar
        </CharString>
        <CharString name="Dcroat.sc">
          endchar
        </CharString>
        <CharString name="E">
          endchar
        </CharString>
        <CharString name="E.sc">
          endchar
        </CharString>
        <CharString name="E.sups">
          endchar
        </CharString>
        <CharString name="Eacute">
          endchar
        </CharString>
        <CharString name="Eacute.sc">
          endchar
        </CharString>
        <CharString name="Ebreve">
          endchar
        </CharString>
        <CharString name="Ebreve.sc">
          endchar
        </CharString>
        <CharString name="Ecaron">
          endchar
        </CharString>
        <CharString name="Ecaron.sc">
          endchar
        </CharString>
        <CharString name="Ecircumflex">
          endchar
        </CharString>
        <CharString name="Ecircumflex.sc">
          endchar
        </CharString>
        <CharString name="Edieresis">
          endchar
        </CharString>
        <CharString name="Edieresis.sc">
          endchar
        </CharString>
        <CharString name="Edotaccent">
          endchar
        </CharString>
        <CharString name="Edotaccent.sc">
          endchar
        </CharString>
        <CharString name="Egrave">
          endchar
        </CharString>
        <CharString name="Egrave.sc">
          endchar
        </CharString>
        <CharString name="Emacron">
          endchar
        </CharString>
        <CharString name="Emacron.sc">
          endchar
        </CharString>
        <CharString name="Eogonek">
          endchar
        </CharString>
        <CharString name="Eogonek.sc">
          endchar
        </CharString>
        <CharString name="Epsilon">
          endchar
        </CharString>
        <CharString name="Epsilon.sc">
          endchar
        </CharString>
        <CharString name="Epsilontonos">
          endchar
        </CharString>
        <CharString name="Eta">
          endchar
        </CharString>
        <CharString name="Eta.sc">
          endchar
        </CharString>
        <CharString name="Etaiotasub.sc">
          endchar
        </CharString>
        <CharString name="Etatonos">
          endchar
        </CharString>
        <CharString name="Eth">
          endchar
        </CharString>
        <CharString name="Eth.sc">
          endchar
        </CharString>
        <CharString name="Euro">
          endchar
        </CharString>
        <CharString name="F">
          endchar
        </CharString>
        <CharString name="F.sc">
          endchar
        </CharString>
        <CharString name="F.sups">
          endchar
        </CharString>
        <CharString name="G">
          endchar
        </CharString>
        <CharString name="G.sc">
          endchar
        </CharString>
        <CharString name="G.sups">
          endchar
        </CharString>
        <CharString name="Gamma">
          endchar
        </CharString>
        <CharString name="Gamma.sc">
          endchar
        </CharString>
        <CharString name="Gbreve">
          endchar
        </CharString>
        <CharString name="Gbreve.sc">
          endchar
        </CharString>
        <CharString name="Gcaron">
          endchar
        </CharString>
        <CharString name="Gcaron.sc">
          endchar
        </CharString>
        <CharString name="Gcircumflex">
          endchar
        </CharString>
        <CharString name="Gcircumflex.sc">
          endchar
        </CharString>
        <CharString name="Gdotaccent">
          endchar
        </CharString>
        <CharString name="Gdotaccent.sc">
          endchar
        </CharString>
        <CharString name="H">
          endchar
        </CharString>
        <CharString name="H.sc">
          endchar
        </CharString>
        <CharString name="H.sups">
          endchar
        </CharString>
        <CharString name="Hbar">
          endchar
        </CharString>
        <CharString name="Hbar.sc">
          endchar
        </CharString>
        <CharString name="Hcircumflex">
          endchar
        </CharString>
        <CharString name="Hcircumflex.sc">
          endchar
        </CharString>
        <CharString name="I">
          endchar
        </CharString>
        <CharString name="I.a">
          endchar
        </CharString>
        <CharString name="I.sc">
          endchar
        </CharString>
        <CharString name="I.sups">
          endchar
        </CharString>
        <CharString name="Iacute">
          endchar
        </CharString>
        <CharString name="Iacute.a">
          endchar
        </CharString>
        <CharString name="Iacute.sc">
          endchar
        </CharString>
        <CharString name="Icircumflex">
          endchar
        </CharString>
        <CharString name="Icircumflex.a">
          endchar
        </CharString>
        <CharString name="Icircumflex.sc">
          endchar
        </CharString>
        <CharString name="Idieresis">
          endchar
        </CharString>
        <CharString name="Idieresis.a">
          endchar
        </CharString>
        <CharString name="Idieresis.sc">
          endchar
        </CharString>
        <CharString name="Idotaccent">
          endchar
        </CharString>
        <CharString name="Idotaccent.a">
          endchar
        </CharString>
        <CharString name="Idotaccent.sc">
          endchar
        </CharString>
        <CharString name="Igrave">
          endchar
        </CharString>
        <CharString name="Igrave.a">
          endchar
        </CharString>
        <CharString name="Igrave.sc">
          endchar
        </CharString>
        <CharString name="Imacron">
          endchar
        </CharString>
        <CharString name="Imacron.a">
          endchar
        </CharString>
        <CharString name="Imacron.sc">
          endchar
        </CharString>
        <CharString name="Iogonek">
          endchar
        </CharString>
        <CharString name="Iogonek.a">
          endchar
        </CharString>
        <CharString name="Iogonek.sc">
          endchar
        </CharString>
        <CharString name="Iota">
          endchar
        </CharString>
        <CharString name="Iota.sc">
          endchar
        </CharString>
        <CharString name="Iotadieresis">
          endchar
        </CharString>
        <CharString name="Iotadieresis.sc">
          endchar
        </CharString>
        <CharString name="Iotatonos">
          endchar
        </CharString>
        <CharString name="Itilde">
          endchar
        </CharString>
        <CharString name="Itilde.a">
          endchar
        </CharString>
        <CharString name="Itilde.sc">
          endchar
        </CharString>
        <CharString name="J">
          endchar
        </CharString>
        <CharString name="J.sc">
          endchar
        </CharString>
        <CharString name="J.sups">
          endchar
        </CharString>
        <CharString name="Jcircumflex">
          endchar
        </CharString>
        <CharString name="Jcircumflex.sc">
          endchar
        </CharString>
        <CharString name="K">
          endchar
        </CharString>
        <CharString name="K.sc">
          endchar
        </CharString>
        <CharString name="K.sups">
          endchar
        </CharString>
        <CharString name="Kappa">
          endchar
        </CharString>
        <CharString name="Kappa.sc">
          endchar
        </CharString>
        <CharString name="L">
          endchar
        </CharString>
        <CharString name="L.sc">
          endchar
        </CharString>
        <CharString name="L.sups">
          endchar
        </CharString>
        <CharString name="Lacute">
          endchar
        </CharString>
        <CharString name="Lacute.sc">
          endchar
        </CharString>
        <CharString name="Lambda">
          endchar
        </CharString>
        <CharString name="Lambda.sc">
          endchar
        </CharString>
        <CharString name="Lcaron">
          endchar
        </CharString>
        <CharString name="Lcaron.sc">
          endchar
        </CharString>
        <CharString name="Ldot">
          endchar
        </CharString>
        <CharString name="Ldot.sc">
          endchar
        </CharString>
        <CharString name="Lslash">
          endchar
        </CharString>
        <CharString name="Lslash.sc">
          endchar
        </CharString>
        <CharString name="M">
          endchar
        </CharString>
        <CharString name="M.sc">
          endchar
        </CharString>
        <CharString name="M.sups">
          endchar
        </CharString>
        <CharString name="Mu">
          endchar
        </CharString>
        <CharString name="Mu.sc">
          endchar
        </CharString>
        <CharString name="N">
          endchar
        </CharString>
        <CharString name="N.sc">
          endchar
        </CharString>
        <CharString name="N.sups">
          endchar
        </CharString>
        <CharString name="Nacute">
          endchar
        </CharString>
        <CharString name="Nacute.sc">
          endchar
        </CharString>
        <CharString name="Ncaron">
          endchar
        </CharString>
        <CharString name="Ncaron.sc">
          endchar
        </CharString>
        <CharString name="Ntilde">
          endchar
        </CharString>
        <CharString name="Ntilde.sc">
          endchar
        </CharString>
        <CharString name="Nu">
          endchar
        </CharString>
        <CharString name="Nu.sc">
          endchar
        </CharString>
        <CharString name="O">
          endchar
        </CharString>
        <CharString name="O.sc">
          endchar
        </CharString>
        <CharString name="O.sups">
          endchar
        </CharString>
        <CharString name="OE">
          endchar
        </CharString>
        <CharString name="OE.sc">
          endchar
        </CharString>
        <CharString name="Oacute">
          endchar
        </CharString>
        <CharString name="Oacute.sc">
          endchar
        </CharString>
        <CharString name="Ocircumflex">
          endchar
        </CharString>
        <CharString name="Ocircumflex.sc">
          endchar
        </CharString>
        <CharString name="Odieresis">
          endchar
        </CharString>
        <CharString name="Odieresis.sc">
          endchar
        </CharString>
        <CharString name="Ograve">
          endchar
        </CharString>
        <CharString name="Ograve.sc">
          endchar
        </CharString>
        <CharString name="Ohorn">
          endchar
        </CharString>
        <CharString name="Ohorn.sc">
          endchar
        </CharString>
        <CharString name="Ohungarumlaut">
          endchar
        </CharString>
        <CharString name="Ohungarumlaut.sc">
          endchar
        </CharString>
        <CharString name="Omacron">
          endchar
        </CharString>
        <CharString name="Omacron.sc">
          endchar
        </CharString>
        <CharString name="Omegaiotasub.sc">
          endchar
        </CharString>
        <CharString name="Omegatonos">
          endchar
        </CharString>
        <CharString name="Omicron">
          endchar
        </CharString>
        <CharString name="Omicron.sc">
          endchar
        </CharString>
        <CharString name="Omicrontonos">
          endchar
        </CharString>
        <CharString name="Oslash">
          106 335 -105 callsubr
          95 -24 78 -42 58 hvcurveto
          69 89 -46 35 -62 -81 rlineto
          41 -47 -60 22 -69 -104 callsubr
          -96 24 -79 41 -59 vhcurveto
          -70 -91 rlineto
          46 -36 64 83 rlineto
          -42 46 60 -23 69 hhcurveto
          -194 343 rmoveto
          163 77 101 117 51 43 -19 -35 33 vhcurveto
          -288 -373 rlineto
          -21 43 -12 56 64 vvcurveto
          194 -270 rmoveto
          -51 -43 20 36 -32 hvcurveto
          287 374 rlineto
          21 -42 12 -54 -64 vvcurveto
          -164 -100 callgsubr
          vhcurveto
          endchar
        </CharString>
        <CharString name="Oslash.sc">
          endchar
        </CharString>
        <CharString name="Otilde">
          endchar
        </CharString>
        <CharString name="Otilde.sc">
          endchar
        </CharString>
        <CharString name="P">
          endchar
        </CharString>
        <CharString name="P.sc">
          endchar
        </CharString>
        <CharString name="P.sups">
          endchar
        </CharString>
        <CharString name="Phi">
          endchar
        </CharString>
        <CharString name="Phi.sc">
          endchar
        </CharString>
        <CharString name="Pi">
          endchar
        </CharString>
        <CharString name="Pi.sc">
          endchar
        </CharString>
        <CharString name="Psi">
          endchar
        </CharString>
        <CharString name="Psi.sc">
          endchar
        </CharString>
        <CharString name="Q">
          endchar
        </CharString>
        <CharString name="Q.sc">
          endchar
        </CharString>
        <CharString name="Q.sups">
          endchar
        </CharString>
        <CharString name="R">
          endchar
        </CharString>
        <CharString name="R.sc">
          endchar
        </CharString>
        <CharString name="R.sups">
          endchar
        </CharString>
        <CharString name="Racute">
          endchar
        </CharString>
        <CharString name="Racute.sc">
          endchar
        </CharString>
        <CharString name="Rcaron">
          endchar
        </CharString>
        <CharString name="Rcaron.sc">
          endchar
        </CharString>
        <CharString name="Rho">
          endchar
        </CharString>
        <CharString name="Rho.sc">
          endchar
        </CharString>
        <CharString name="S">
          endchar
        </CharString>
        <CharString name="S.sc">
          endchar
        </CharString>
        <CharString name="S.sups">
          endchar
        </CharString>
        <CharString name="Sacute">
          endchar
        </CharString>
        <CharString name="Sacute.sc">
          endchar
        </CharString>
        <CharString name="Scaron">
          endchar
        </CharString>
        <CharString name="Scaron.sc">
          endchar
        </CharString>
        <CharString name="Scircumflex">
          endchar
        </CharString>
        <CharString name="Scircumflex.sc">
          endchar
        </CharString>
        <CharString name="Sigma">
          endchar
        </CharString>
        <CharString name="Sigma.sc">
          endchar
        </CharString>
        <CharString name="T">
          endchar
        </CharString>
        <CharString name="T.sc">
          endchar
        </CharString>
        <CharString name="T.sups">
          endchar
        </CharString>
        <CharString name="Tau">
          endchar
        </CharString>
        <CharString name="Tau.sc">
          endchar
        </CharString>
        <CharString name="Tcaron">
          endchar
        </CharString>
        <CharString name="Tcaron.sc">
          endchar
        </CharString>
        <CharString name="Theta">
          endchar
        </CharString>
        <CharString name="Theta.sc">
          endchar
        </CharString>
        <CharString name="Thorn">
          25 90 hmoveto
          83 150 118 hlineto
          144 98 64 139 143 -97 50 -145 hvcurveto
          -118 hlineto
          110 -83 vlineto
          83 -438 rmoveto
          260 108 vlineto
          113 56 -31 -94 -94 -55 -41 -114 hvcurveto
          endchar
        </CharString>
        <CharString name="Thorn.sc">
          endchar
        </CharString>
        <CharString name="U">
          endchar
        </CharString>
        <CharString name="U.sc">
          endchar
        </CharString>
        <CharString name="U.sups">
          endchar
        </CharString>
        <CharString name="Uacute">
          87 -102 callgsubr
          -17 709 -107 callgsubr
        </CharString>
        <CharString name="Uacute.sc">
          endchar
        </CharString>
        <CharString name="Ubreve">
          endchar
        </CharString>
        <CharString name="Ubreve.sc">
          endchar
        </CharString>
        <CharString name="Ucircumflex">
          endchar
        </CharString>
        <CharString name="Ucircumflex.sc">
          endchar
        </CharString>
        <CharString name="Udieresis">
          endchar
        </CharString>
        <CharString name="Udieresis.sc">
          endchar
        </CharString>
        <CharString name="Ugrave">
          87 -102 callgsubr
          17 709 -106 callsubr
        </CharString>
        <CharString name="Ugrave.sc">
          endchar
        </CharString>
        <CharString name="Uhorn">
          endchar
        </CharString>
        <CharString name="Uhorn.sc">
          endchar
        </CharString>
        <CharString name="Uhungarumlaut">
          endchar
        </CharString>
        <CharString name="Uhungarumlaut.sc">
          endchar
        </CharString>
        <CharString name="Umacron">
          endchar
        </CharString>
        <CharString name="Umacron.sc">
          endchar
        </CharString>
        <CharString name="Uogonek">
          endchar
        </CharString>
        <CharString name="Uogonek.sc">
          endchar
        </CharString>
        <CharString name="Upsilon">
          endchar
        </CharString>
        <CharString name="Upsilon.sc">
          endchar
        </CharString>
        <CharString name="Upsilondieresis">
          endchar
        </CharString>
        <CharString name="Upsilondieresis.sc">
          endchar
        </CharString>
        <CharString name="Upsilontonos">
          endchar
        </CharString>
        <CharString name="Uring">
          endchar
        </CharString>
        <CharString name="Uring.sc">
          endchar
        </CharString>
        <CharString name="Utilde">
          endchar
        </CharString>
        <CharString name="Utilde.sc">
          endchar
        </CharString>
        <CharString name="V">
          endchar
        </CharString>
        <CharString name="V.sc">
          endchar
        </CharString>
        <CharString name="V.sups">
          endchar
        </CharString>
        <CharString name="W">
          endchar
        </CharString>
        <CharString name="W.sc">
          endchar
        </CharString>
        <CharString name="W.sups">
          endchar
        </CharString>
        <CharString name="Wacute">
          endchar
        </CharString>
        <CharString name="Wacute.sc">
          endchar
        </CharString>
        <CharString name="Wcircumflex">
          endchar
        </CharString>
        <CharString name="Wcircumflex.sc">
          endchar
        </CharString>
        <CharString name="Wdieresis">
          endchar
        </CharString>
        <CharString name="Wdieresis.sc">
          endchar
        </CharString>
        <CharString name="Wgrave">
          endchar
        </CharString>
        <CharString name="Wgrave.sc">
          endchar
        </CharString>
        <CharString name="X">
          endchar
        </CharString>
        <CharString name="X.sc">
          endchar
        </CharString>
        <CharString name="X.sups">
          endchar
        </CharString>
        <CharString name="Xi">
          endchar
        </CharString>
        <CharString name="Xi.sc">
          endchar
        </CharString>
        <CharString name="Y">
          endchar
        </CharString>
        <CharString name="Y.sc">
          endchar
        </CharString>
        <CharString name="Y.sups">
          endchar
        </CharString>
        <CharString name="Yacute">
          endchar
        </CharString>
        <CharString name="Yacute.sc">
          endchar
        </CharString>
        <CharString name="Ycircumflex">
          endchar
        </CharString>
        <CharString name="Ycircumflex.sc">
          endchar
        </CharString>
        <CharString name="Ydieresis">
          endchar
        </CharString>
        <CharString name="Ydieresis.sc">
          endchar
        </CharString>
        <CharString name="Ygrave">
          endchar
        </CharString>
        <CharString name="Ygrave.sc">
          endchar
        </CharString>
        <CharString name="Z">
          endchar
        </CharString>
        <CharString name="Z.sc">
          endchar
        </CharString>
        <CharString name="Z.sups">
          endchar
        </CharString>
        <CharString name="Zacute">
          endchar
        </CharString>
        <CharString name="Zacute.sc">
          endchar
        </CharString>
        <CharString name="Zcaron">
          endchar
        </CharString>
        <CharString name="Zcaron.sc">
          endchar
        </CharString>
        <CharString name="Zdotaccent">
          endchar
        </CharString>
        <CharString name="Zdotaccent.sc">
          endchar
        </CharString>
        <CharString name="Zeta">
          endchar
        </CharString>
        <CharString name="Zeta.sc">
          endchar
        </CharString>
        <CharString name="a">
          endchar
        </CharString>
        <CharString name="a.a">
          endchar
        </CharString>
        <CharString name="a.supa">
          endchar
        </CharString>
        <CharString name="a.sups">
          endchar
        </CharString>
        <CharString name="aacute">
          endchar
        </CharString>
        <CharString name="aacute.a">
          endchar
        </CharString>
        <CharString name="abreve">
          endchar
        </CharString>
        <CharString name="abreve.a">
          endchar
        </CharString>
        <CharString name="acircumflex">
          endchar
        </CharString>
        <CharString name="acircumflex.a">
          endchar
        </CharString>
        <CharString name="adieresis">
          endchar
        </CharString>
        <CharString name="adieresis.a">
          endchar
        </CharString>
        <CharString name="ae">
          endchar
        </CharString>
        <CharString name="agrave">
          endchar
        </CharString>
        <CharString name="agrave.a">
          endchar
        </CharString>
        <CharString name="alpha">
          endchar
        </CharString>
        <CharString name="alphatonos">
          endchar
        </CharString>
        <CharString name="amacron">
          endchar
        </CharString>
        <CharString name="amacron.a">
          endchar
        </CharString>
        <CharString name="ampersand">
          endchar
        </CharString>
        <CharString name="ampersand.sc">
          endchar
        </CharString>
        <CharString name="anoteleia">
          endchar
        </CharString>
        <CharString name="anoteleia.cap">
          endchar
        </CharString>
        <CharString name="aogonek">
          endchar
        </CharString>
        <CharString name="aogonek.a">
          endchar
        </CharString>
        <CharString name="aring">
          endchar
        </CharString>
        <CharString name="aring.a">
          endchar
        </CharString>
        <CharString name="asterisk">
          endchar
        </CharString>
        <CharString name="at">
          endchar
        </CharString>
        <CharString name="at.case">
          endchar
        </CharString>
        <CharString name="atilde">
          endchar
        </CharString>
        <CharString name="atilde.a">
          endchar
        </CharString>
        <CharString name="b">
          endchar
        </CharString>
        <CharString name="b.sups">
          endchar
        </CharString>
        <CharString name="backslash">
          endchar
        </CharString>
        <CharString name="bar">
          endchar
        </CharString>
        <CharString name="beta">
          endchar
        </CharString>
        <CharString name="braceleft">
          endchar
        </CharString>
        <CharString name="braceleft.sc">
          endchar
        </CharString>
        <CharString name="braceright">
          endchar
        </CharString>
        <CharString name="braceright.sc">
          endchar
        </CharString>
        <CharString name="bracketleft">
          endchar
        </CharString>
        <CharString name="bracketleft.sc">
          endchar
        </CharString>
        <CharString name="bracketright">
          endchar
        </CharString>
        <CharString name="bracketright.sc">
          endchar
        </CharString>
        <CharString name="brokenbar">
          endchar
        </CharString>
        <CharString name="bullet">
          endchar
        </CharString>
        <CharString name="c">
          endchar
        </CharString>
        <CharString name="c.sups">
          endchar
        </CharString>
        <CharString name="cacute">
          endchar
        </CharString>
        <CharString name="ccaron">
          endchar
        </CharString>
        <CharString name="ccedilla">
          endchar
        </CharString>
        <CharString name="ccircumflex">
          endchar
        </CharString>
        <CharString name="cdotaccent">
          endchar
        </CharString>
        <CharString name="cent">
          endchar
        </CharString>
        <CharString name="chi">
          endchar
        </CharString>
        <CharString name="colon">
          endchar
        </CharString>
        <CharString name="colon.sups">
          endchar
        </CharString>
        <CharString name="colonmonetary">
          endchar
        </CharString>
        <CharString name="comma">
          endchar
        </CharString>
        <CharString name="comma.dnom">
          endchar
        </CharString>
        <CharString name="comma.numr">
          endchar
        </CharString>
        <CharString name="comma.subs">
          endchar
        </CharString>
        <CharString name="comma.sups">
          endchar
        </CharString>
        <CharString name="copyright">
          endchar
        </CharString>
        <CharString name="currency">
          endchar
        </CharString>
        <CharString name="d">
          endchar
        </CharString>
        <CharString name="d.sups">
          endchar
        </CharString>
        <CharString name="dagger">
          endchar
        </CharString>
        <CharString name="daggerdbl">
          endchar
        </CharString>
        <CharString name="dcaron">
          endchar
        </CharString>
        <CharString name="dcroat">
          endchar
        </CharString>
        <CharString name="degree">
          endchar
        </CharString>
        <CharString name="delta">
          endchar
        </CharString>
        <CharString name="dieresistonos">
          endchar
        </CharString>
        <CharString name="dollar">
          endchar
        </CharString>
        <CharString name="dong">
          endchar
        </CharString>
        <CharString name="dotlessi">
          endchar
        </CharString>
        <CharString name="e">
          endchar
        </CharString>
        <CharString name="e.sups">
          endchar
        </CharString>
        <CharString name="eacute">
          endchar
        </CharString>
        <CharString name="eacute.sups">
          endchar
        </CharString>
        <CharString name="ebreve">
          endchar
        </CharString>
        <CharString name="ecaron">
          endchar
        </CharString>
        <CharString name="ecircumflex">
          endchar
        </CharString>
        <CharString name="edieresis">
          endchar
        </CharString>
        <CharString name="edotaccent">
          endchar
        </CharString>
        <CharString name="egrave">
          endchar
        </CharString>
        <CharString name="egrave.sups">
          endchar
        </CharString>
        <CharString name="eight">
          endchar
        </CharString>
        <CharString name="eight.cap">
          endchar
        </CharString>
        <CharString name="eight.dnom">
          endchar
        </CharString>
        <CharString name="eight.numr">
          endchar
        </CharString>
        <CharString name="eight.onum">
          endchar
        </CharString>
        <CharString name="eight.pnum">
          endchar
        </CharString>
        <CharString name="eight.sc">
          endchar
        </CharString>
        <CharString name="eight.subs">
          endchar
        </CharString>
        <CharString name="eight.sups">
          endchar
        </CharString>
        <CharString name="eight.tnum">
          endchar
        </CharString>
        <CharString name="ellipsis">
          endchar
        </CharString>
        <CharString name="emacron">
          endchar
        </CharString>
        <CharString name="emdash">
          endchar
        </CharString>
        <CharString name="emdash.sc">
          endchar
        </CharString>
        <CharString name="emdash.sups">
          endchar
        </CharString>
        <CharString name="endash">
          endchar
        </CharString>
        <CharString name="endash.sc">
          endchar
        </CharString>
        <CharString name="endash.sups">
          endchar
        </CharString>
        <CharString name="eogonek">
          endchar
        </CharString>
        <CharString name="epsilon">
          endchar
        </CharString>
        <CharString name="epsilontonos">
          endchar
        </CharString>
        <CharString name="eta">
          endchar
        </CharString>
        <CharString name="etatonos">
          endchar
        </CharString>
        <CharString name="eth">
          endchar
        </CharString>
        <CharString name="exclam">
          endchar
        </CharString>
        <CharString name="exclam.sc">
          endchar
        </CharString>
        <CharString name="exclamdown">
          endchar
        </CharString>
        <CharString name="exclamdown.sc">
          endchar
        </CharString>
        <CharString name="f">
          endchar
        </CharString>
        <CharString name="f.sups">
          endchar
        </CharString>
        <CharString name="f_f">
          endchar
        </CharString>
        <CharString name="f_f_i">
          endchar
        </CharString>
        <CharString name="f_f_l">
          endchar
        </CharString>
        <CharString name="f_f_t">
          endchar
        </CharString>
        <CharString name="f_t">
          endchar
        </CharString>
        <CharString name="figuredash">
          endchar
        </CharString>
        <CharString name="five">
          endchar
        </CharString>
        <CharString name="five.cap">
          endchar
        </CharString>
        <CharString name="five.dnom">
          endchar
        </CharString>
        <CharString name="five.numr">
          endchar
        </CharString>
        <CharString name="five.onum">
          endchar
        </CharString>
        <CharString name="five.pnum">
          endchar
        </CharString>
        <CharString name="five.sc">
          endchar
        </CharString>
        <CharString name="five.subs">
          endchar
        </CharString>
        <CharString name="five.sups">
          endchar
        </CharString>
        <CharString name="five.tnum">
          endchar
        </CharString>
        <CharString name="fiveeighths">
          endchar
        </CharString>
        <CharString name="fl.a">
          endchar
        </CharString>
        <CharString name="four">
          endchar
        </CharString>
        <CharString name="four.cap">
          endchar
        </CharString>
        <CharString name="four.dnom">
          endchar
        </CharString>
        <CharString name="four.numr">
          endchar
        </CharString>
        <CharString name="four.onum">
          endchar
        </CharString>
        <CharString name="four.pnum">
          endchar
        </CharString>
        <CharString name="four.sc">
          endchar
        </CharString>
        <CharString name="four.subs">
          endchar
        </CharString>
        <CharString name="four.sups">
          endchar
        </CharString>
        <CharString name="four.tnum">
          endchar
        </CharString>
        <CharString name="fraction">
          endchar
        </CharString>
        <CharString name="g">
          endchar
        </CharString>
        <CharString name="g.a">
          endchar
        </CharString>
        <CharString name="g.supa">
          endchar
        </CharString>
        <CharString name="g.sups">
          endchar
        </CharString>
        <CharString name="gamma">
          endchar
        </CharString>
        <CharString name="gbreve">
          endchar
        </CharString>
        <CharString name="gbreve.a">
          endchar
        </CharString>
        <CharString name="gcaron">
          endchar
        </CharString>
        <CharString name="gcaron.a">
          endchar
        </CharString>
        <CharString name="gcircumflex">
          endchar
        </CharString>
        <CharString name="gcircumflex.a">
          endchar
        </CharString>
        <CharString name="gdotaccent">
          endchar
        </CharString>
        <CharString name="gdotaccent.a">
          endchar
        </CharString>
        <CharString name="germandbls">
          endchar
        </CharString>
        <CharString name="germandbls.sc">
          endchar
        </CharString>
        <CharString name="guillemotleft">
          endchar
        </CharString>
        <CharString name="guillemotright">
          endchar
        </CharString>
        <CharString name="guilsinglleft">
          endchar
        </CharString>
        <CharString name="guilsinglright">
          endchar
        </CharString>
        <CharString name="h">
          endchar
        </CharString>
        <CharString name="h.sups">
          endchar
        </CharString>
        <CharString name="hbar">
          endchar
        </CharString>
        <CharString name="hcircumflex">
          endchar
        </CharString>
        <CharString name="hyphen">
          endchar
        </CharString>
        <CharString name="hyphen.sc">
          endchar
        </CharString>
        <CharString name="hyphen.sups">
          endchar
        </CharString>
        <CharString name="i">
          endchar
        </CharString>
        <CharString name="i.sups">
          endchar
        </CharString>
        <CharString name="i.trk">
          endchar
        </CharString>
        <CharString name="iacute">
          endchar
        </CharString>
        <CharString name="icircumflex">
          endchar
        </CharString>
        <CharString name="idieresis">
          endchar
        </CharString>
        <CharString name="igrave">
          endchar
        </CharString>
        <CharString name="imacron">
          endchar
        </CharString>
        <CharString name="iogonek">
          endchar
        </CharString>
        <CharString name="iogonek.d">
          endchar
        </CharString>
        <CharString name="iota">
          endchar
        </CharString>
        <CharString name="iotadieresis">
          endchar
        </CharString>
        <CharString name="iotadieresistonos">
          endchar
        </CharString>
        <CharString name="iotatonos">
          endchar
        </CharString>
        <CharString name="itilde">
          endchar
        </CharString>
        <CharString name="j">
          endchar
        </CharString>
        <CharString name="j.sups">
          endchar
        </CharString>
        <CharString name="jcircumflex">
          endchar
        </CharString>
        <CharString name="k">
          endchar
        </CharString>
        <CharString name="k.sups">
          endchar
        </CharString>
        <CharString name="kappa">
          endchar
        </CharString>
        <CharString name="kgreenlandic">
          endchar
        </CharString>
        <CharString name="l">
          endchar
        </CharString>
        <CharString name="l.a">
          endchar
        </CharString>
        <CharString name="l.supa">
          endchar
        </CharString>
        <CharString name="l.sups">
          endchar
        </CharString>
        <CharString name="lacute">
          endchar
        </CharString>
        <CharString name="lacute.a">
          endchar
        </CharString>
        <CharString name="lambda">
          endchar
        </CharString>
        <CharString name="lcaron">
          endchar
        </CharString>
        <CharString name="lcaron.a">
          endchar
        </CharString>
        <CharString name="ldot">
          endchar
        </CharString>
        <CharString name="ldot.a">
          endchar
        </CharString>
        <CharString name="lira">
          endchar
        </CharString>
        <CharString name="lslash">
          endchar
        </CharString>
        <CharString name="lslash.a">
          endchar
        </CharString>
        <CharString name="m">
          endchar
        </CharString>
        <CharString name="m.sups">
          endchar
        </CharString>
        <CharString name="minus">
          endchar
        </CharString>
        <CharString name="multiply">
          -61 94 126 rmoveto
          155 160 154 -160 44 45 -155 159 155 158 -44 45 -154 -159 -155 159 -44 -45 155 -158 -155 -159 rlineto
          endchar
        </CharString>
        <CharString name="n">
          endchar
        </CharString>
        <CharString name="n.sups">
          endchar
        </CharString>
        <CharString name="nacute">
          endchar
        </CharString>
        <CharString name="napostrophe">
          endchar
        </CharString>
        <CharString name="ncaron">
          endchar
        </CharString>
        <CharString name="nine">
          endchar
        </CharString>
        <CharString name="nine.cap">
          endchar
        </CharString>
        <CharString name="nine.dnom">
          endchar
        </CharString>
        <CharString name="nine.numr">
          endchar
        </CharString>
        <CharString name="nine.onum">
          endchar
        </CharString>
        <CharString name="nine.pnum">
          endchar
        </CharString>
        <CharString name="nine.sc">
          endchar
        </CharString>
        <CharString name="nine.subs">
          endchar
        </CharString>
        <CharString name="nine.sups">
          endchar
        </CharString>
        <CharString name="nine.tnum">
          endchar
        </CharString>
        <CharString name="ntilde">
          endchar
        </CharString>
        <CharString name="nu">
          endchar
        </CharString>
        <CharString name="numbersign">
          endchar
        </CharString>
        <CharString name="o">
          endchar
        </CharString>
        <CharString name="o.sups">
          endchar
        </CharString>
        <CharString name="oacute">
          endchar
        </CharString>
        <CharString name="ocircumflex">
          endchar
        </CharString>
        <CharString name="odieresis">
          endchar
        </CharString>
        <CharString name="oe">
          endchar
        </CharString>
        <CharString name="ograve">
          endchar
        </CharString>
        <CharString name="ohorn">
          endchar
        </CharString>
        <CharString name="ohungarumlaut">
          endchar
        </CharString>
        <CharString name="omacron">
          endchar
        </CharString>
        <CharString name="omega">
          endchar
        </CharString>
        <CharString name="omegatonos">
          endchar
        </CharString>
        <CharString name="omicron">
          endchar
        </CharString>
        <CharString name="omicrontonos">
          endchar
        </CharString>
        <CharString name="one">
          endchar
        </CharString>
        <CharString name="one.cap">
          endchar
        </CharString>
        <CharString name="one.dnom">
          endchar
        </CharString>
        <CharString name="one.numr">
          endchar
        </CharString>
        <CharString name="one.onum">
          endchar
        </CharString>
        <CharString name="one.pnum">
          endchar
        </CharString>
        <CharString name="one.sc">
          endchar
        </CharString>
        <CharString name="one.subs">
          endchar
        </CharString>
        <CharString name="one.sups">
          endchar
        </CharString>
        <CharString name="one.tnum">
          endchar
        </CharString>
        <CharString name="oneeighth">
          endchar
        </CharString>
        <CharString name="onehalf">
          endchar
        </CharString>
        <CharString name="onequarter">
          endchar
        </CharString>
        <CharString name="onethird">
          endchar
        </CharString>
        <CharString name="ordfeminine">
          endchar
        </CharString>
        <CharString name="ordfeminine.a">
          endchar
        </CharString>
        <CharString name="ordmasculine">
          endchar
        </CharString>
        <CharString name="oslash">
          endchar
        </CharString>
        <CharString name="otilde">
          endchar
        </CharString>
        <CharString name="p">
          endchar
        </CharString>
        <CharString name="p.sups">
          endchar
        </CharString>
        <CharString name="paragraph">
          endchar
        </CharString>
        <CharString name="parenleft">
          endchar
        </CharString>
        <CharString name="parenleft.dnom">
          endchar
        </CharString>
        <CharString name="parenleft.numr">
          endchar
        </CharString>
        <CharString name="parenleft.sc">
          endchar
        </CharString>
        <CharString name="parenleft.subs">
          endchar
        </CharString>
        <CharString name="parenleft.sups">
          endchar
        </CharString>
        <CharString name="parenright">
          endchar
        </CharString>
        <CharString name="parenright.dnom">
          endchar
        </CharString>
        <CharString name="parenright.numr">
          endchar
        </CharString>
        <CharString name="parenright.sc">
          endchar
        </CharString>
        <CharString name="parenright.subs">
          endchar
        </CharString>
        <CharString name="parenright.sups">
          endchar
        </CharString>
        <CharString name="percent">
          endchar
        </CharString>
        <CharString name="period">
          endchar
        </CharString>
        <CharString name="period.dnom">
          endchar
        </CharString>
        <CharString name="period.numr">
          endchar
        </CharString>
        <CharString name="period.subs">
          endchar
        </CharString>
        <CharString name="period.sups">
          endchar
        </CharString>
        <CharString name="periodcentered">
          endchar
        </CharString>
        <CharString name="perthousand">
          endchar
        </CharString>
        <CharString name="peseta">
          endchar
        </CharString>
        <CharString name="phi">
          endchar
        </CharString>
        <CharString name="pi">
          endchar
        </CharString>
        <CharString name="plus">
          endchar
        </CharString>
        <CharString name="psi">
          endchar
        </CharString>
        <CharString name="q">
          endchar
        </CharString>
        <CharString name="q.sups">
          endchar
        </CharString>
        <CharString name="question">
          endchar
        </CharString>
        <CharString name="question.sc">
          endchar
        </CharString>
        <CharString name="questiondown">
          endchar
        </CharString>
        <CharString name="questiondown.sc">
          endchar
        </CharString>
        <CharString name="quotedbl">
          endchar
        </CharString>
        <CharString name="quotedbl.sc">
          endchar
        </CharString>
        <CharString name="quotedblbase">
          endchar
        </CharString>
        <CharString name="quotedblleft">
          endchar
        </CharString>
        <CharString name="quotedblleft.sc">
          endchar
        </CharString>
        <CharString name="quotedblright">
          endchar
        </CharString>
        <CharString name="quotedblright.sc">
          endchar
        </CharString>
        <CharString name="quoteleft">
          endchar
        </CharString>
        <CharString name="quoteleft.sc">
          endchar
        </CharString>
        <CharString name="quoteright">
          endchar
        </CharString>
        <CharString name="quoteright.sc">
          endchar
        </CharString>
        <CharString name="quotesinglbase">
          endchar
        </CharString>
        <CharString name="quotesingle">
          endchar
        </CharString>
        <CharString name="quotesingle.sc">
          endchar
        </CharString>
        <CharString name="r">
          endchar
        </CharString>
        <CharString name="r.sups">
          endchar
        </CharString>
        <CharString name="racute">
          endchar
        </CharString>
        <CharString name="rcaron">
          endchar
        </CharString>
        <CharString name="registered">
          endchar
        </CharString>
        <CharString name="rho">
          endchar
        </CharString>
        <CharString name="s">
          endchar
        </CharString>
        <CharString name="s.sups">
          endchar
        </CharString>
        <CharString name="sacute">
          endchar
        </CharString>
        <CharString name="scaron">
          endchar
        </CharString>
        <CharString name="scircumflex">
          endchar
        </CharString>
        <CharString name="section">
          endchar
        </CharString>
        <CharString name="semicolon">
          endchar
        </CharString>
        <CharString name="seven">
          endchar
        </CharString>
        <CharString name="seven.cap">
          endchar
        </CharString>
        <CharString name="seven.dnom">
          endchar
        </CharString>
        <CharString name="seven.numr">
          endchar
        </CharString>
        <CharString name="seven.onum">
          endchar
        </CharString>
        <CharString name="seven.pnum">
          endchar
        </CharString>
        <CharString name="seven.sc">
          endchar
        </CharString>
        <CharString name="seven.subs">
          endchar
        </CharString>
        <CharString name="seven.sups">
          endchar
        </CharString>
        <CharString name="seven.tnum">
          endchar
        </CharString>
        <CharString name="seveneighths">
          endchar
        </CharString>
        <CharString name="sigma">
          endchar
        </CharString>
        <CharString name="six">
          endchar
        </CharString>
        <CharString name="six.cap">
          endchar
        </CharString>
        <CharString name="six.dnom">
          endchar
        </CharString>
        <CharString name="six.numr">
          endchar
        </CharString>
        <CharString name="six.onum">
          endchar
        </CharString>
        <CharString name="six.pnum">
          endchar
        </CharString>
        <CharString name="six.sc">
          endchar
        </CharString>
        <CharString name="six.subs">
          endchar
        </CharString>
        <CharString name="six.sups">
          endchar
        </CharString>
        <CharString name="six.tnum">
          endchar
        </CharString>
        <CharString name="slash">
          endchar
        </CharString>
        <CharString name="slash.frac">
          endchar
        </CharString>
        <CharString name="space">
          endchar
        </CharString>
        <CharString name="sterling">
          endchar
        </CharString>
        <CharString name="t">
          endchar
        </CharString>
        <CharString name="t.sups">
          endchar
        </CharString>
        <CharString name="tau">
          endchar
        </CharString>
        <CharString name="tcaron">
          endchar
        </CharString>
        <CharString name="theta">
          endchar
        </CharString>
        <CharString name="thorn">
          endchar
        </CharString>
        <CharString name="three">
          endchar
        </CharString>
        <CharString name="three.cap">
          endchar
        </CharString>
        <CharString name="three.dnom">
          endchar
        </CharString>
        <CharString name="three.numr">
          endchar
        </CharString>
        <CharString name="three.onum">
          endchar
        </CharString>
        <CharString name="three.pnum">
          endchar
        </CharString>
        <CharString name="three.sc">
          endchar
        </CharString>
        <CharString name="three.subs">
          endchar
        </CharString>
        <CharString name="three.sups">
          endchar
        </CharString>
        <CharString name="three.tnum">
          endchar
        </CharString>
        <CharString name="threeeighths">
          endchar
        </CharString>
        <CharString name="threequarters">
          endchar
        </CharString>
        <CharString name="tonos">
          endchar
        </CharString>
        <CharString name="tonos.cap">
          endchar
        </CharString>
        <CharString name="trademark">
          endchar
        </CharString>
        <CharString name="two">
          endchar
        </CharString>
        <CharString name="two.cap">
          endchar
        </CharString>
        <CharString name="two.dnom">
          endchar
        </CharString>
        <CharString name="two.numr">
          endchar
        </CharString>
        <CharString name="two.onum">
          endchar
        </CharString>
        <CharString name="two.pnum">
          endchar
        </CharString>
        <CharString name="two.sc">
          endchar
        </CharString>
        <CharString name="two.subs">
          endchar
        </CharString>
        <CharString name="two.sups">
          endchar
        </CharString>
        <CharString name="two.tnum">
          endchar
        </CharString>
        <CharString name="twothirds">
          endchar
        </CharString>
        <CharString name="u">
          endchar
        </CharString>
        <CharString name="u.sups">
          endchar
        </CharString>
        <CharString name="u1F16A">
          endchar
        </CharString>
        <CharString name="u1F16B">
          endchar
        </CharString>
        <CharString name="uacute">
          endchar
        </CharString>
        <CharString name="ubreve">
          endchar
        </CharString>
        <CharString name="ucircumflex">
          endchar
        </CharString>
        <CharString name="udieresis">
          endchar
        </CharString>
        <CharString name="ugrave">
          endchar
        </CharString>
        <CharString name="uhorn">
          endchar
        </CharString>
        <CharString name="uhungarumlaut">
          endchar
        </CharString>
        <CharString name="umacron">
          endchar
        </CharString>
        <CharString name="underscore">
          endchar
        </CharString>
        <CharString name="uni00470303">
          endchar
        </CharString>
        <CharString name="uni00470303.sc">
          endchar
        </CharString>
        <CharString name="uni00670303">
          endchar
        </CharString>
        <CharString name="uni00670303.a">
          endchar
        </CharString>
        <CharString name="uni00AD">
          endchar
        </CharString>
        <CharString name="uni0122">
          endchar
        </CharString>
        <CharString name="uni0122.sc">
          endchar
        </CharString>
        <CharString name="uni0123">
          endchar
        </CharString>
        <CharString name="uni0123.a">
          endchar
        </CharString>
        <CharString name="uni012C">
          endchar
        </CharString>
        <CharString name="uni012C.a">
          endchar
        </CharString>
        <CharString name="uni012C.sc">
          endchar
        </CharString>
        <CharString name="uni012D">
          endchar
        </CharString>
        <CharString name="uni0132">
          endchar
        </CharString>
        <CharString name="uni0132.sc">
          endchar
        </CharString>
        <CharString name="uni0133">
          endchar
        </CharString>
        <CharString name="uni0136">
          endchar
        </CharString>
        <CharString name="uni0136.sc">
          endchar
        </CharString>
        <CharString name="uni0137">
          endchar
        </CharString>
        <CharString name="uni013B">
          endchar
        </CharString>
        <CharString name="uni013B.sc">
          endchar
        </CharString>
        <CharString name="uni013C">
          endchar
        </CharString>
        <CharString name="uni013C.a">
          endchar
        </CharString>
        <CharString name="uni0145">
          endchar
        </CharString>
        <CharString name="uni0145.sc">
          endchar
        </CharString>
        <CharString name="uni0146">
          endchar
        </CharString>
        <CharString name="uni014A">
          endchar
        </CharString>
        <CharString name="uni014A.a">
          endchar
        </CharString>
        <CharString name="uni014A.sc">
          endchar
        </CharString>
        <CharString name="uni014A.sca">
          endchar
        </CharString>
        <CharString name="uni014B">
          endchar
        </CharString>
        <CharString name="uni014E">
          endchar
        </CharString>
        <CharString name="uni014E.sc">
          endchar
        </CharString>
        <CharString name="uni014F">
          endchar
        </CharString>
        <CharString name="uni0156">
          endchar
        </CharString>
        <CharString name="uni0156.sc">
          endchar
        </CharString>
        <CharString name="uni0157">
          endchar
        </CharString>
        <CharString name="uni015E">
          endchar
        </CharString>
        <CharString name="uni015E.sc">
          endchar
        </CharString>
        <CharString name="uni015F">
          endchar
        </CharString>
        <CharString name="uni0162">
          endchar
        </CharString>
        <CharString name="uni0162.sc">
          endchar
        </CharString>
        <CharString name="uni0163">
          endchar
        </CharString>
        <CharString name="uni0166">
          endchar
        </CharString>
        <CharString name="uni0166.sc">
          endchar
        </CharString>
        <CharString name="uni0167">
          endchar
        </CharString>
        <CharString name="uni0180">
          endchar
        </CharString>
        <CharString name="uni018F">
          endchar
        </CharString>
        <CharString name="uni018F.sc">
          endchar
        </CharString>
        <CharString name="uni0192">
          endchar
        </CharString>
        <CharString name="uni0193">
          endchar
        </CharString>
        <CharString name="uni0193.sc">
          endchar
        </CharString>
        <CharString name="uni01C2">
          endchar
        </CharString>
        <CharString name="uni01CD">
          endchar
        </CharString>
        <CharString name="uni01CD.sc">
          endchar
        </CharString>
        <CharString name="uni01CE">
          endchar
        </CharString>
        <CharString name="uni01CE.a">
          endchar
        </CharString>
        <CharString name="uni01CF">
          endchar
        </CharString>
        <CharString name="uni01CF.a">
          endchar
        </CharString>
        <CharString name="uni01CF.sc">
          endchar
        </CharString>
        <CharString name="uni01D0">
          endchar
        </CharString>
        <CharString name="uni01D1">
          endchar
        </CharString>
        <CharString name="uni01D1.sc">
          endchar
        </CharString>
        <CharString name="uni01D2">
          endchar
        </CharString>
        <CharString name="uni01D3">
          endchar
        </CharString>
        <CharString name="uni01D3.sc">
          endchar
        </CharString>
        <CharString name="uni01D4">
          endchar
        </CharString>
        <CharString name="uni01D5">
          endchar
        </CharString>
        <CharString name="uni01D5.sc">
          endchar
        </CharString>
        <CharString name="uni01D6">
          endchar
        </CharString>
        <CharString name="uni01D7">
          endchar
        </CharString>
        <CharString name="uni01D7.sc">
          endchar
        </CharString>
        <CharString name="uni01D8">
          endchar
        </CharString>
        <CharString name="uni01D9">
          endchar
        </CharString>
        <CharString name="uni01D9.sc">
          endchar
        </CharString>
        <CharString name="uni01DA">
          endchar
        </CharString>
        <CharString name="uni01DB">
          endchar
        </CharString>
        <CharString name="uni01DB.sc">
          endchar
        </CharString>
        <CharString name="uni01DC">
          endchar
        </CharString>
        <CharString name="uni01E2">
          endchar
        </CharString>
        <CharString name="uni01E2.sc">
          endchar
        </CharString>
        <CharString name="uni01E3">
          endchar
        </CharString>
        <CharString name="uni01EA">
          endchar
        </CharString>
        <CharString name="uni01EA.sc">
          endchar
        </CharString>
        <CharString name="uni01EB">
          endchar
        </CharString>
        <CharString name="uni01F4">
          endchar
        </CharString>
        <CharString name="uni01F4.sc">
          endchar
        </CharString>
        <CharString name="uni01F5">
          endchar
        </CharString>
        <CharString name="uni01F5.a">
          endchar
        </CharString>
        <CharString name="uni01F8">
          endchar
        </CharString>
        <CharString name="uni01F8.sc">
          endchar
        </CharString>
        <CharString name="uni01F9">
          endchar
        </CharString>
        <CharString name="uni01FC">
          endchar
        </CharString>
        <CharString name="uni01FC.sc">
          endchar
        </CharString>
        <CharString name="uni01FD">
          endchar
        </CharString>
        <CharString name="uni0218">
          endchar
        </CharString>
        <CharString name="uni0218.sc">
          endchar
        </CharString>
        <CharString name="uni0219">
          endchar
        </CharString>
        <CharString name="uni021A">
          endchar
        </CharString>
        <CharString name="uni021A.sc">
          endchar
        </CharString>
        <CharString name="uni021B">
          endchar
        </CharString>
        <CharString name="uni0237">
          endchar
        </CharString>
        <CharString name="uni0243">
          endchar
        </CharString>
        <CharString name="uni0243.sc">
          endchar
        </CharString>
        <CharString name="uni0250">
          endchar
        </CharString>
        <CharString name="uni0251">
          endchar
        </CharString>
        <CharString name="uni0252">
          endchar
        </CharString>
        <CharString name="uni0253">
          endchar
        </CharString>
        <CharString name="uni0254">
          endchar
        </CharString>
        <CharString name="uni0255">
          endchar
        </CharString>
        <CharString name="uni0256">
          endchar
        </CharString>
        <CharString name="uni0257">
          endchar
        </CharString>
        <CharString name="uni0258">
          endchar
        </CharString>
        <CharString name="uni0259">
          endchar
        </CharString>
        <CharString name="uni0259.sups">
          endchar
        </CharString>
        <CharString name="uni025A">
          endchar
        </CharString>
        <CharString name="uni025B">
          endchar
        </CharString>
        <CharString name="uni025C">
          endchar
        </CharString>
        <CharString name="uni025E">
          endchar
        </CharString>
        <CharString name="uni025F">
          endchar
        </CharString>
        <CharString name="uni0260">
          endchar
        </CharString>
        <CharString name="uni0261">
          endchar
        </CharString>
        <CharString name="uni0262">
          endchar
        </CharString>
        <CharString name="uni0263">
          endchar
        </CharString>
        <CharString name="uni0264">
          endchar
        </CharString>
        <CharString name="uni0265">
          endchar
        </CharString>
        <CharString name="uni0266">
          endchar
        </CharString>
        <CharString name="uni0267">
          endchar
        </CharString>
        <CharString name="uni0268">
          endchar
        </CharString>
        <CharString name="uni026A">
          endchar
        </CharString>
        <CharString name="uni026C">
          endchar
        </CharString>
        <CharString name="uni026D">
          endchar
        </CharString>
        <CharString name="uni026E">
          endchar
        </CharString>
        <CharString name="uni026F">
          endchar
        </CharString>
        <CharString name="uni0270">
          endchar
        </CharString>
        <CharString name="uni0271">
          endchar
        </CharString>
        <CharString name="uni0272">
          endchar
        </CharString>
        <CharString name="uni0273">
          endchar
        </CharString>
        <CharString name="uni0274">
          endchar
        </CharString>
        <CharString name="uni0275">
          endchar
        </CharString>
        <CharString name="uni0276">
          endchar
        </CharString>
        <CharString name="uni0278">
          endchar
        </CharString>
        <CharString name="uni0279">
          endchar
        </CharString>
        <CharString name="uni027A">
          endchar
        </CharString>
        <CharString name="uni027B">
          endchar
        </CharString>
        <CharString name="uni027D">
          endchar
        </CharString>
        <CharString name="uni027E">
          endchar
        </CharString>
        <CharString name="uni0280">
          endchar
        </CharString>
        <CharString name="uni0281">
          endchar
        </CharString>
        <CharString name="uni0282">
          endchar
        </CharString>
        <CharString name="uni0283">
          endchar
        </CharString>
        <CharString name="uni0284">
          endchar
        </CharString>
        <CharString name="uni0288">
          endchar
        </CharString>
        <CharString name="uni0289">
          endchar
        </CharString>
        <CharString name="uni028A">
          endchar
        </CharString>
        <CharString name="uni028B">
          endchar
        </CharString>
        <CharString name="uni028C">
          endchar
        </CharString>
        <CharString name="uni028D">
          endchar
        </CharString>
        <CharString name="uni028E">
          endchar
        </CharString>
        <CharString name="uni028F">
          endchar
        </CharString>
        <CharString name="uni0290">
          endchar
        </CharString>
        <CharString name="uni0291">
          endchar
        </CharString>
        <CharString name="uni0292">
          endchar
        </CharString>
        <CharString name="uni0294">
          endchar
        </CharString>
        <CharString name="uni0295">
          endchar
        </CharString>
        <CharString name="uni0298">
          endchar
        </CharString>
        <CharString name="uni0299">
          endchar
        </CharString>
        <CharString name="uni029C">
          endchar
        </CharString>
        <CharString name="uni029D">
          endchar
        </CharString>
        <CharString name="uni029F">
          endchar
        </CharString>
        <CharString name="uni02A1">
          endchar
        </CharString>
        <CharString name="uni02A2">
          endchar
        </CharString>
        <CharString name="uni02C1">
          endchar
        </CharString>
        <CharString name="uni02D0">
          endchar
        </CharString>
        <CharString name="uni02D1">
          endchar
        </CharString>
        <CharString name="uni02DE">
          endchar
        </CharString>
        <CharString name="uni02E0">
          endchar
        </CharString>
        <CharString name="uni0374">
          endchar
        </CharString>
        <CharString name="uni0375">
          endchar
        </CharString>
        <CharString name="uni037A">
          endchar
        </CharString>
        <CharString name="uni037E">
          endchar
        </CharString>
        <CharString name="uni0394">
          endchar
        </CharString>
        <CharString name="uni0394.sc">
          endchar
        </CharString>
        <CharString name="uni03A9">
          endchar
        </CharString>
        <CharString name="uni03A9.sc">
          endchar
        </CharString>
        <CharString name="uni03BC">
          endchar
        </CharString>
        <CharString name="uni03C2">
          endchar
        </CharString>
        <CharString name="uni03D0">
          endchar
        </CharString>
        <CharString name="uni03D1">
          endchar
        </CharString>
        <CharString name="uni03D5">
          endchar
        </CharString>
        <CharString name="uni03D7">
          endchar
        </CharString>
        <CharString name="uni03D9">
          endchar
        </CharString>
        <CharString name="uni03DB">
          endchar
        </CharString>
        <CharString name="uni03DD">
          endchar
        </CharString>
        <CharString name="uni03E1">
          endchar
        </CharString>
        <CharString name="uni0400">
          endchar
        </CharString>
        <CharString name="uni0400.sc">
          endchar
        </CharString>
        <CharString name="uni0401">
          endchar
        </CharString>
        <CharString name="uni0401.sc">
          endchar
        </CharString>
        <CharString name="uni0402">
          endchar
        </CharString>
        <CharString name="uni0402.sc">
          endchar
        </CharString>
        <CharString name="uni0403">
          endchar
        </CharString>
        <CharString name="uni0403.sc">
          endchar
        </CharString>
        <CharString name="uni0404">
          endchar
        </CharString>
        <CharString name="uni0404.sc">
          endchar
        </CharString>
        <CharString name="uni0405">
          endchar
        </CharString>
        <CharString name="uni0405.sc">
          endchar
        </CharString>
        <CharString name="uni0406">
          endchar
        </CharString>
        <CharString name="uni0406.sc">
          endchar
        </CharString>
        <CharString name="uni0407">
          endchar
        </CharString>
        <CharString name="uni0407.a">
          endchar
        </CharString>
        <CharString name="uni0407.sc">
          endchar
        </CharString>
        <CharString name="uni0407.sca">
          endchar
        </CharString>
        <CharString name="uni0408">
          endchar
        </CharString>
        <CharString name="uni0408.sc">
          endchar
        </CharString>
        <CharString name="uni0409">
          endchar
        </CharString>
        <CharString name="uni0409.sc">
          endchar
        </CharString>
        <CharString name="uni040A">
          endchar
        </CharString>
        <CharString name="uni040A.sc">
          endchar
        </CharString>
        <CharString name="uni040B">
          endchar
        </CharString>
        <CharString name="uni040B.sc">
          endchar
        </CharString>
        <CharString name="uni040C">
          endchar
        </CharString>
        <CharString name="uni040C.a">
          endchar
        </CharString>
        <CharString name="uni040C.b">
          endchar
        </CharString>
        <CharString name="uni040C.sc">
          endchar
        </CharString>
        <CharString name="uni040D">
          endchar
        </CharString>
        <CharString name="uni040D.sc">
          endchar
        </CharString>
        <CharString name="uni040E">
          endchar
        </CharString>
        <CharString name="uni040E.sc">
          endchar
        </CharString>
        <CharString name="uni040F">
          endchar
        </CharString>
        <CharString name="uni040F.sc">
          endchar
        </CharString>
        <CharString name="uni0410">
          endchar
        </CharString>
        <CharString name="uni0410.sc">
          endchar
        </CharString>
        <CharString name="uni0411">
          endchar
        </CharString>
        <CharString name="uni0411.sc">
          endchar
        </CharString>
        <CharString name="uni0412">
          endchar
        </CharString>
        <CharString name="uni0412.sc">
          endchar
        </CharString>
        <CharString name="uni0413">
          endchar
        </CharString>
        <CharString name="uni0413.sc">
          endchar
        </CharString>
        <CharString name="uni0414">
          endchar
        </CharString>
        <CharString name="uni0414.sc">
          endchar
        </CharString>
        <CharString name="uni0415">
          endchar
        </CharString>
        <CharString name="uni0415.sc">
          endchar
        </CharString>
        <CharString name="uni0416">
          endchar
        </CharString>
        <CharString name="uni0416.a">
          endchar
        </CharString>
        <CharString name="uni0416.b">
          endchar
        </CharString>
        <CharString name="uni0416.sc">
          endchar
        </CharString>
        <CharString name="uni0417">
          endchar
        </CharString>
        <CharString name="uni0417.sc">
          endchar
        </CharString>
        <CharString name="uni0418">
          endchar
        </CharString>
        <CharString name="uni0418.sc">
          endchar
        </CharString>
        <CharString name="uni0419">
          endchar
        </CharString>
        <CharString name="uni0419.sc">
          endchar
        </CharString>
        <CharString name="uni041A">
          endchar
        </CharString>
        <CharString name="uni041A.a">
          endchar
        </CharString>
        <CharString name="uni041A.b">
          endchar
        </CharString>
        <CharString name="uni041A.sc">
          endchar
        </CharString>
        <CharString name="uni041B">
          endchar
        </CharString>
        <CharString name="uni041B.sc">
          endchar
        </CharString>
        <CharString name="uni041C">
          endchar
        </CharString>
        <CharString name="uni041C.sc">
          endchar
        </CharString>
        <CharString name="uni041D">
          endchar
        </CharString>
        <CharString name="uni041D.sc">
          endchar
        </CharString>
        <CharString name="uni041E">
          endchar
        </CharString>
        <CharString name="uni041E.sc">
          endchar
        </CharString>
        <CharString name="uni041F">
          endchar
        </CharString>
        <CharString name="uni041F.sc">
          endchar
        </CharString>
        <CharString name="uni0420">
          endchar
        </CharString>
        <CharString name="uni0420.sc">
          endchar
        </CharString>
        <CharString name="uni0421">
          endchar
        </CharString>
        <CharString name="uni0421.sc">
          endchar
        </CharString>
        <CharString name="uni0422">
          endchar
        </CharString>
        <CharString name="uni0422.sc">
          endchar
        </CharString>
        <CharString name="uni0423">
          endchar
        </CharString>
        <CharString name="uni0423.sc">
          endchar
        </CharString>
        <CharString name="uni0424">
          endchar
        </CharString>
        <CharString name="uni0424.sc">
          endchar
        </CharString>
        <CharString name="uni0425">
          endchar
        </CharString>
        <CharString name="uni0425.sc">
          endchar
        </CharString>
        <CharString name="uni0426">
          endchar
        </CharString>
        <CharString name="uni0426.sc">
          endchar
        </CharString>
        <CharString name="uni0427">
          endchar
        </CharString>
        <CharString name="uni0427.sc">
          endchar
        </CharString>
        <CharString name="uni0428">
          endchar
        </CharString>
        <CharString name="uni0428.sc">
          endchar
        </CharString>
        <CharString name="uni0429">
          endchar
        </CharString>
        <CharString name="uni0429.sc">
          endchar
        </CharString>
        <CharString name="uni042A">
          endchar
        </CharString>
        <CharString name="uni042A.sc">
          endchar
        </CharString>
        <CharString name="uni042B">
          endchar
        </CharString>
        <CharString name="uni042B.sc">
          endchar
        </CharString>
        <CharString name="uni042C">
          endchar
        </CharString>
        <CharString name="uni042C.sc">
          endchar
        </CharString>
        <CharString name="uni042D">
          endchar
        </CharString>
        <CharString name="uni042D.sc">
          endchar
        </CharString>
        <CharString name="uni042E">
          endchar
        </CharString>
        <CharString name="uni042E.sc">
          endchar
        </CharString>
        <CharString name="uni042F">
          endchar
        </CharString>
        <CharString name="uni042F.sc">
          endchar
        </CharString>
        <CharString name="uni0430">
          endchar
        </CharString>
        <CharString name="uni0431">
          endchar
        </CharString>
        <CharString name="uni0431.srb">
          endchar
        </CharString>
        <CharString name="uni0432">
          endchar
        </CharString>
        <CharString name="uni0433">
          endchar
        </CharString>
        <CharString name="uni0434">
          endchar
        </CharString>
        <CharString name="uni0435">
          endchar
        </CharString>
        <CharString name="uni0436">
          endchar
        </CharString>
        <CharString name="uni0436.a">
          endchar
        </CharString>
        <CharString name="uni0436.b">
          endchar
        </CharString>
        <CharString name="uni0437">
          endchar
        </CharString>
        <CharString name="uni0438">
          endchar
        </CharString>
        <CharString name="uni0439">
          endchar
        </CharString>
        <CharString name="uni043A">
          endchar
        </CharString>
        <CharString name="uni043A.a">
          endchar
        </CharString>
        <CharString name="uni043A.b">
          endchar
        </CharString>
        <CharString name="uni043B">
          endchar
        </CharString>
        <CharString name="uni043C">
          endchar
        </CharString>
        <CharString name="uni043D">
          endchar
        </CharString>
        <CharString name="uni043E">
          endchar
        </CharString>
        <CharString name="uni043F">
          endchar
        </CharString>
        <CharString name="uni0440">
          endchar
        </CharString>
        <CharString name="uni0441">
          endchar
        </CharString>
        <CharString name="uni0442">
          endchar
        </CharString>
        <CharString name="uni0443">
          endchar
        </CharString>
        <CharString name="uni0444">
          endchar
        </CharString>
        <CharString name="uni0445">
          endchar
        </CharString>
        <CharString name="uni0446">
          endchar
        </CharString>
        <CharString name="uni0447">
          endchar
        </CharString>
        <CharString name="uni0448">
          endchar
        </CharString>
        <CharString name="uni0449">
          endchar
        </CharString>
        <CharString name="uni044A">
          endchar
        </CharString>
        <CharString name="uni044B">
          endchar
        </CharString>
        <CharString name="uni044C">
          endchar
        </CharString>
        <CharString name="uni044D">
          endchar
        </CharString>
        <CharString name="uni044E">
          endchar
        </CharString>
        <CharString name="uni044F">
          endchar
        </CharString>
        <CharString name="uni0450">
          endchar
        </CharString>
        <CharString name="uni0451">
          endchar
        </CharString>
        <CharString name="uni0452">
          endchar
        </CharString>
        <CharString name="uni0453">
          endchar
        </CharString>
        <CharString name="uni0454">
          endchar
        </CharString>
        <CharString name="uni0455">
          endchar
        </CharString>
        <CharString name="uni0456">
          endchar
        </CharString>
        <CharString name="uni0457">
          endchar
        </CharString>
        <CharString name="uni0457.a">
          endchar
        </CharString>
        <CharString name="uni0458">
          endchar
        </CharString>
        <CharString name="uni0459">
          endchar
        </CharString>
        <CharString name="uni045A">
          endchar
        </CharString>
        <CharString name="uni045B">
          endchar
        </CharString>
        <CharString name="uni045C">
          endchar
        </CharString>
        <CharString name="uni045C.a">
          endchar
        </CharString>
        <CharString name="uni045C.b">
          endchar
        </CharString>
        <CharString name="uni045D">
          endchar
        </CharString>
        <CharString name="uni045E">
          endchar
        </CharString>
        <CharString name="uni045F">
          endchar
        </CharString>
        <CharString name="uni0462">
          endchar
        </CharString>
        <CharString name="uni0462.sc">
          endchar
        </CharString>
        <CharString name="uni0463">
          endchar
        </CharString>
        <CharString name="uni0472">
          endchar
        </CharString>
        <CharString name="uni0472.sc">
          endchar
        </CharString>
        <CharString name="uni0473">
          endchar
        </CharString>
        <CharString name="uni0474">
          endchar
        </CharString>
        <CharString name="uni0474.sc">
          endchar
        </CharString>
        <CharString name="uni0475">
          endchar
        </CharString>
        <CharString name="uni0490">
          endchar
        </CharString>
        <CharString name="uni0490.sc">
          endchar
        </CharString>
        <CharString name="uni0491">
          endchar
        </CharString>
        <CharString name="uni0492">
          endchar
        </CharString>
        <CharString name="uni0492.sc">
          endchar
        </CharString>
        <CharString name="uni0493">
          endchar
        </CharString>
        <CharString name="uni0496">
          endchar
        </CharString>
        <CharString name="uni0496.a">
          endchar
        </CharString>
        <CharString name="uni0496.b">
          endchar
        </CharString>
        <CharString name="uni0496.sc">
          endchar
        </CharString>
        <CharString name="uni0497">
          endchar
        </CharString>
        <CharString name="uni0497.a">
          endchar
        </CharString>
        <CharString name="uni0497.b">
          endchar
        </CharString>
        <CharString name="uni0498">
          endchar
        </CharString>
        <CharString name="uni0498.sc">
          endchar
        </CharString>
        <CharString name="uni0499">
          endchar
        </CharString>
        <CharString name="uni049A">
          endchar
        </CharString>
        <CharString name="uni049A.a">
          endchar
        </CharString>
        <CharString name="uni049A.b">
          endchar
        </CharString>
        <CharString name="uni049A.sc">
          endchar
        </CharString>
        <CharString name="uni049B">
          endchar
        </CharString>
        <CharString name="uni049B.a">
          endchar
        </CharString>
        <CharString name="uni049B.b">
          endchar
        </CharString>
        <CharString name="uni04A0">
          endchar
        </CharString>
        <CharString name="uni04A0.a">
          endchar
        </CharString>
        <CharString name="uni04A0.b">
          endchar
        </CharString>
        <CharString name="uni04A0.sc">
          endchar
        </CharString>
        <CharString name="uni04A1">
          endchar
        </CharString>
        <CharString name="uni04A1.a">
          endchar
        </CharString>
        <CharString name="uni04A1.b">
          endchar
        </CharString>
        <CharString name="uni04A2">
          endchar
        </CharString>
        <CharString name="uni04A2.sc">
          endchar
        </CharString>
        <CharString name="uni04A3">
          endchar
        </CharString>
        <CharString name="uni04AA">
          endchar
        </CharString>
        <CharString name="uni04AA.sc">
          endchar
        </CharString>
        <CharString name="uni04AB">
          endchar
        </CharString>
        <CharString name="uni04AE">
          endchar
        </CharString>
        <CharString name="uni04AE.sc">
          endchar
        </CharString>
        <CharString name="uni04AF">
          endchar
        </CharString>
        <CharString name="uni04B0">
          endchar
        </CharString>
        <CharString name="uni04B0.sc">
          endchar
        </CharString>
        <CharString name="uni04B1">
          endchar
        </CharString>
        <CharString name="uni04B2">
          endchar
        </CharString>
        <CharString name="uni04B2.sc">
          endchar
        </CharString>
        <CharString name="uni04B3">
          endchar
        </CharString>
        <CharString name="uni04B6">
          endchar
        </CharString>
        <CharString name="uni04B6.sc">
          endchar
        </CharString>
        <CharString name="uni04B7">
          endchar
        </CharString>
        <CharString name="uni04BA">
          endchar
        </CharString>
        <CharString name="uni04BA.sc">
          endchar
        </CharString>
        <CharString name="uni04BB">
          endchar
        </CharString>
        <CharString name="uni04C0">
          endchar
        </CharString>
        <CharString name="uni04C0.sc">
          endchar
        </CharString>
        <CharString name="uni04C1">
          endchar
        </CharString>
        <CharString name="uni04C1.a">
          endchar
        </CharString>
        <CharString name="uni04C1.b">
          endchar
        </CharString>
        <CharString name="uni04C1.sc">
          endchar
        </CharString>
        <CharString name="uni04C2">
          endchar
        </CharString>
        <CharString name="uni04C2.a">
          endchar
        </CharString>
        <CharString name="uni04C2.b">
          endchar
        </CharString>
        <CharString name="uni04CF">
          endchar
        </CharString>
        <CharString name="uni04D0">
          endchar
        </CharString>
        <CharString name="uni04D0.sc">
          endchar
        </CharString>
        <CharString name="uni04D1">
          endchar
        </CharString>
        <CharString name="uni04D4">
          endchar
        </CharString>
        <CharString name="uni04D4.sc">
          endchar
        </CharString>
        <CharString name="uni04D5">
          endchar
        </CharString>
        <CharString name="uni04D6">
          endchar
        </CharString>
        <CharString name="uni04D6.sc">
          endchar
        </CharString>
        <CharString name="uni04D7">
          endchar
        </CharString>
        <CharString name="uni04D8">
          endchar
        </CharString>
        <CharString name="uni04D8.sc">
          endchar
        </CharString>
        <CharString name="uni04D9">
          endchar
        </CharString>
        <CharString name="uni04E2">
          endchar
        </CharString>
        <CharString name="uni04E2.sc">
          endchar
        </CharString>
        <CharString name="uni04E3">
          endchar
        </CharString>
        <CharString name="uni04E6">
          endchar
        </CharString>
        <CharString name="uni04E6.sc">
          endchar
        </CharString>
        <CharString name="uni04E7">
          endchar
        </CharString>
        <CharString name="uni04E8">
          endchar
        </CharString>
        <CharString name="uni04E8.sc">
          endchar
        </CharString>
        <CharString name="uni04E9">
          endchar
        </CharString>
        <CharString name="uni04EE">
          endchar
        </CharString>
        <CharString name="uni04EE.sc">
          endchar
        </CharString>
        <CharString name="uni04EF">
          endchar
        </CharString>
        <CharString name="uni04F2">
          endchar
        </CharString>
        <CharString name="uni04F2.sc">
          endchar
        </CharString>
        <CharString name="uni04F3">
          endchar
        </CharString>
        <CharString name="uni1E06">
          endchar
        </CharString>
        <CharString name="uni1E06.sc">
          endchar
        </CharString>
        <CharString name="uni1E07">
          endchar
        </CharString>
        <CharString name="uni1E0C">
          endchar
        </CharString>
        <CharString name="uni1E0C.sc">
          endchar
        </CharString>
        <CharString name="uni1E0D">
          endchar
        </CharString>
        <CharString name="uni1E0E">
          endchar
        </CharString>
        <CharString name="uni1E0E.sc">
          endchar
        </CharString>
        <CharString name="uni1E0F">
          endchar
        </CharString>
        <CharString name="uni1E16">
          endchar
        </CharString>
        <CharString name="uni1E16.sc">
          endchar
        </CharString>
        <CharString name="uni1E17">
          endchar
        </CharString>
        <CharString name="uni1E20">
          endchar
        </CharString>
        <CharString name="uni1E20.sc">
          endchar
        </CharString>
        <CharString name="uni1E21">
          endchar
        </CharString>
        <CharString name="uni1E21.a">
          endchar
        </CharString>
        <CharString name="uni1E24">
          endchar
        </CharString>
        <CharString name="uni1E24.sc">
          endchar
        </CharString>
        <CharString name="uni1E25">
          endchar
        </CharString>
        <CharString name="uni1E2A">
          endchar
        </CharString>
        <CharString name="uni1E2A.sc">
          endchar
        </CharString>
        <CharString name="uni1E2B">
          endchar
        </CharString>
        <CharString name="uni1E32">
          endchar
        </CharString>
        <CharString name="uni1E32.sc">
          endchar
        </CharString>
        <CharString name="uni1E33">
          endchar
        </CharString>
        <CharString name="uni1E34">
          endchar
        </CharString>
        <CharString name="uni1E34.sc">
          endchar
        </CharString>
        <CharString name="uni1E35">
          endchar
        </CharString>
        <CharString name="uni1E36">
          endchar
        </CharString>
        <CharString name="uni1E36.sc">
          endchar
        </CharString>
        <CharString name="uni1E37">
          endchar
        </CharString>
        <CharString name="uni1E37.a">
          endchar
        </CharString>
        <CharString name="uni1E38">
          endchar
        </CharString>
        <CharString name="uni1E38.sc">
          endchar
        </CharString>
        <CharString name="uni1E39">
          endchar
        </CharString>
        <CharString name="uni1E39.a">
          endchar
        </CharString>
        <CharString name="uni1E3A">
          endchar
        </CharString>
        <CharString name="uni1E3A.sc">
          endchar
        </CharString>
        <CharString name="uni1E3B">
          endchar
        </CharString>
        <CharString name="uni1E3B.a">
          endchar
        </CharString>
        <CharString name="uni1E3E">
          endchar
        </CharString>
        <CharString name="uni1E3E.sc">
          endchar
        </CharString>
        <CharString name="uni1E3F">
          endchar
        </CharString>
        <CharString name="uni1E40">
          endchar
        </CharString>
        <CharString name="uni1E40.sc">
          endchar
        </CharString>
        <CharString name="uni1E41">
          endchar
        </CharString>
        <CharString name="uni1E42">
          endchar
        </CharString>
        <CharString name="uni1E42.sc">
          endchar
        </CharString>
        <CharString name="uni1E43">
          endchar
        </CharString>
        <CharString name="uni1E44">
          endchar
        </CharString>
        <CharString name="uni1E44.sc">
          endchar
        </CharString>
        <CharString name="uni1E45">
          endchar
        </CharString>
        <CharString name="uni1E46">
          endchar
        </CharString>
        <CharString name="uni1E46.sc">
          endchar
        </CharString>
        <CharString name="uni1E47">
          endchar
        </CharString>
        <CharString name="uni1E48">
          endchar
        </CharString>
        <CharString name="uni1E48.sc">
          endchar
        </CharString>
        <CharString name="uni1E49">
          endchar
        </CharString>
        <CharString name="uni1E52">
          endchar
        </CharString>
        <CharString name="uni1E52.sc">
          endchar
        </CharString>
        <CharString name="uni1E53">
          endchar
        </CharString>
        <CharString name="uni1E58">
          endchar
        </CharString>
        <CharString name="uni1E58.sc">
          endchar
        </CharString>
        <CharString name="uni1E59">
          endchar
        </CharString>
        <CharString name="uni1E5A">
          endchar
        </CharString>
        <CharString name="uni1E5A.sc">
          endchar
        </CharString>
        <CharString name="uni1E5B">
          endchar
        </CharString>
        <CharString name="uni1E5C">
          endchar
        </CharString>
        <CharString name="uni1E5C.sc">
          endchar
        </CharString>
        <CharString name="uni1E5D">
          endchar
        </CharString>
        <CharString name="uni1E5E">
          endchar
        </CharString>
        <CharString name="uni1E5E.sc">
          endchar
        </CharString>
        <CharString name="uni1E5F">
          endchar
        </CharString>
        <CharString name="uni1E60">
          endchar
        </CharString>
        <CharString name="uni1E60.sc">
          endchar
        </CharString>
        <CharString name="uni1E61">
          endchar
        </CharString>
        <CharString name="uni1E62">
          endchar
        </CharString>
        <CharString name="uni1E62.sc">
          endchar
        </CharString>
        <CharString name="uni1E63">
          endchar
        </CharString>
        <CharString name="uni1E6C">
          endchar
        </CharString>
        <CharString name="uni1E6C.sc">
          endchar
        </CharString>
        <CharString name="uni1E6D">
          endchar
        </CharString>
        <CharString name="uni1E6E">
          endchar
        </CharString>
        <CharString name="uni1E6E.sc">
          endchar
        </CharString>
        <CharString name="uni1E6F">
          endchar
        </CharString>
        <CharString name="uni1E8E">
          endchar
        </CharString>
        <CharString name="uni1E8E.sc">
          endchar
        </CharString>
        <CharString name="uni1E8F">
          endchar
        </CharString>
        <CharString name="uni1E92">
          endchar
        </CharString>
        <CharString name="uni1E92.sc">
          endchar
        </CharString>
        <CharString name="uni1E93">
          endchar
        </CharString>
        <CharString name="uni1E94">
          endchar
        </CharString>
        <CharString name="uni1E94.sc">
          endchar
        </CharString>
        <CharString name="uni1E95">
          endchar
        </CharString>
        <CharString name="uni1E96">
          endchar
        </CharString>
        <CharString name="uni1E97">
          endchar
        </CharString>
        <CharString name="uni1E9E">
          endchar
        </CharString>
        <CharString name="uni1E9E.sc">
          endchar
        </CharString>
        <CharString name="uni1EA0">
          endchar
        </CharString>
        <CharString name="uni1EA0.sc">
          endchar
        </CharString>
        <CharString name="uni1EA1">
          endchar
        </CharString>
        <CharString name="uni1EA1.a">
          endchar
        </CharString>
        <CharString name="uni1EA2">
          endchar
        </CharString>
        <CharString name="uni1EA2.sc">
          endchar
        </CharString>
        <CharString name="uni1EA3">
          endchar
        </CharString>
        <CharString name="uni1EA3.a">
          endchar
        </CharString>
        <CharString name="uni1EA4">
          endchar
        </CharString>
        <CharString name="uni1EA4.sc">
          endchar
        </CharString>
        <CharString name="uni1EA5">
          endchar
        </CharString>
        <CharString name="uni1EA5.a">
          endchar
        </CharString>
        <CharString name="uni1EA6">
          endchar
        </CharString>
        <CharString name="uni1EA6.sc">
          endchar
        </CharString>
        <CharString name="uni1EA7">
          endchar
        </CharString>
        <CharString name="uni1EA7.a">
          endchar
        </CharString>
        <CharString name="uni1EA8">
          endchar
        </CharString>
        <CharString name="uni1EA8.sc">
          endchar
        </CharString>
        <CharString name="uni1EA9">
          endchar
        </CharString>
        <CharString name="uni1EA9.a">
          endchar
        </CharString>
        <CharString name="uni1EAA">
          endchar
        </CharString>
        <CharString name="uni1EAA.sc">
          endchar
        </CharString>
        <CharString name="uni1EAB">
          endchar
        </CharString>
        <CharString name="uni1EAB.a">
          endchar
        </CharString>
        <CharString name="uni1EAC">
          endchar
        </CharString>
        <CharString name="uni1EAC.sc">
          endchar
        </CharString>
        <CharString name="uni1EAD">
          endchar
        </CharString>
        <CharString name="uni1EAD.a">
          endchar
        </CharString>
        <CharString name="uni1EAE">
          endchar
        </CharString>
        <CharString name="uni1EAE.sc">
          endchar
        </CharString>
        <CharString name="uni1EAF">
          endchar
        </CharString>
        <CharString name="uni1EAF.a">
          endchar
        </CharString>
        <CharString name="uni1EB0">
          endchar
        </CharString>
        <CharString name="uni1EB0.sc">
          endchar
        </CharString>
        <CharString name="uni1EB1">
          endchar
        </CharString>
        <CharString name="uni1EB1.a">
          endchar
        </CharString>
        <CharString name="uni1EB2">
          endchar
        </CharString>
        <CharString name="uni1EB2.sc">
          endchar
        </CharString>
        <CharString name="uni1EB3">
          endchar
        </CharString>
        <CharString name="uni1EB3.a">
          endchar
        </CharString>
        <CharString name="uni1EB4">
          endchar
        </CharString>
        <CharString name="uni1EB4.sc">
          endchar
        </CharString>
        <CharString name="uni1EB5">
          endchar
        </CharString>
        <CharString name="uni1EB5.a">
          endchar
        </CharString>
        <CharString name="uni1EB6">
          endchar
        </CharString>
        <CharString name="uni1EB6.sc">
          endchar
        </CharString>
        <CharString name="uni1EB7">
          endchar
        </CharString>
        <CharString name="uni1EB7.a">
          endchar
        </CharString>
        <CharString name="uni1EB8">
          endchar
        </CharString>
        <CharString name="uni1EB8.sc">
          endchar
        </CharString>
        <CharString name="uni1EB9">
          endchar
        </CharString>
        <CharString name="uni1EBA">
          endchar
        </CharString>
        <CharString name="uni1EBA.sc">
          endchar
        </CharString>
        <CharString name="uni1EBB">
          endchar
        </CharString>
        <CharString name="uni1EBC">
          endchar
        </CharString>
        <CharString name="uni1EBC.sc">
          endchar
        </CharString>
        <CharString name="uni1EBD">
          endchar
        </CharString>
        <CharString name="uni1EBE">
          endchar
        </CharString>
        <CharString name="uni1EBE.sc">
          endchar
        </CharString>
        <CharString name="uni1EBF">
          endchar
        </CharString>
        <CharString name="uni1EC0">
          endchar
        </CharString>
        <CharString name="uni1EC0.sc">
          endchar
        </CharString>
        <CharString name="uni1EC1">
          endchar
        </CharString>
        <CharString name="uni1EC2">
          endchar
        </CharString>
        <CharString name="uni1EC2.sc">
          endchar
        </CharString>
        <CharString name="uni1EC3">
          endchar
        </CharString>
        <CharString name="uni1EC4">
          endchar
        </CharString>
        <CharString name="uni1EC4.sc">
          endchar
        </CharString>
        <CharString name="uni1EC5">
          endchar
        </CharString>
        <CharString name="uni1EC6">
          endchar
        </CharString>
        <CharString name="uni1EC6.sc">
          endchar
        </CharString>
        <CharString name="uni1EC7">
          endchar
        </CharString>
        <CharString name="uni1EC8">
          endchar
        </CharString>
        <CharString name="uni1EC8.a">
          endchar
        </CharString>
        <CharString name="uni1EC8.sc">
          endchar
        </CharString>
        <CharString name="uni1EC9">
          endchar
        </CharString>
        <CharString name="uni1ECA">
          endchar
        </CharString>
        <CharString name="uni1ECA.a">
          endchar
        </CharString>
        <CharString name="uni1ECA.sc">
          endchar
        </CharString>
        <CharString name="uni1ECB">
          endchar
        </CharString>
        <CharString name="uni1ECC">
          endchar
        </CharString>
        <CharString name="uni1ECC.sc">
          endchar
        </CharString>
        <CharString name="uni1ECD">
          endchar
        </CharString>
        <CharString name="uni1ECE">
          endchar
        </CharString>
        <CharString name="uni1ECE.sc">
          endchar
        </CharString>
        <CharString name="uni1ECF">
          endchar
        </CharString>
        <CharString name="uni1ED0">
          endchar
        </CharString>
        <CharString name="uni1ED0.sc">
          endchar
        </CharString>
        <CharString name="uni1ED1">
          endchar
        </CharString>
        <CharString name="uni1ED2">
          endchar
        </CharString>
        <CharString name="uni1ED2.sc">
          endchar
        </CharString>
        <CharString name="uni1ED3">
          endchar
        </CharString>
        <CharString name="uni1ED4">
          endchar
        </CharString>
        <CharString name="uni1ED4.sc">
          endchar
        </CharString>
        <CharString name="uni1ED5">
          endchar
        </CharString>
        <CharString name="uni1ED6">
          endchar
        </CharString>
        <CharString name="uni1ED6.sc">
          endchar
        </CharString>
        <CharString name="uni1ED7">
          endchar
        </CharString>
        <CharString name="uni1ED8">
          endchar
        </CharString>
        <CharString name="uni1ED8.sc">
          endchar
        </CharString>
        <CharString name="uni1ED9">
          endchar
        </CharString>
        <CharString name="uni1EDA">
          endchar
        </CharString>
        <CharString name="uni1EDA.sc">
          endchar
        </CharString>
        <CharString name="uni1EDB">
          endchar
        </CharString>
        <CharString name="uni1EDC">
          endchar
        </CharString>
        <CharString name="uni1EDC.sc">
          endchar
        </CharString>
        <CharString name="uni1EDD">
          endchar
        </CharString>
        <CharString name="uni1EDE">
          endchar
        </CharString>
        <CharString name="uni1EDE.sc">
          endchar
        </CharString>
        <CharString name="uni1EDF">
          endchar
        </CharString>
        <CharString name="uni1EE0">
          endchar
        </CharString>
        <CharString name="uni1EE0.sc">
          endchar
        </CharString>
        <CharString name="uni1EE1">
          endchar
        </CharString>
        <CharString name="uni1EE2">
          endchar
        </CharString>
        <CharString name="uni1EE2.sc">
          endchar
        </CharString>
        <CharString name="uni1EE3">
          endchar
        </CharString>
        <CharString name="uni1EE4">
          endchar
        </CharString>
        <CharString name="uni1EE4.sc">
          endchar
        </CharString>
        <CharString name="uni1EE5">
          endchar
        </CharString>
        <CharString name="uni1EE6">
          endchar
        </CharString>
        <CharString name="uni1EE6.sc">
          endchar
        </CharString>
        <CharString name="uni1EE7">
          endchar
        </CharString>
        <CharString name="uni1EE8">
          endchar
        </CharString>
        <CharString name="uni1EE8.sc">
          endchar
        </CharString>
        <CharString name="uni1EE9">
          endchar
        </CharString>
        <CharString name="uni1EEA">
          endchar
        </CharString>
        <CharString name="uni1EEA.sc">
          endchar
        </CharString>
        <CharString name="uni1EEB">
          endchar
        </CharString>
        <CharString name="uni1EEC">
          endchar
        </CharString>
        <CharString name="uni1EEC.sc">
          endchar
        </CharString>
        <CharString name="uni1EED">
          endchar
        </CharString>
        <CharString name="uni1EEE">
          endchar
        </CharString>
        <CharString name="uni1EEE.sc">
          endchar
        </CharString>
        <CharString name="uni1EEF">
          endchar
        </CharString>
        <CharString name="uni1EF0">
          endchar
        </CharString>
        <CharString name="uni1EF0.sc">
          endchar
        </CharString>
        <CharString name="uni1EF1">
          endchar
        </CharString>
        <CharString name="uni1EF4">
          endchar
        </CharString>
        <CharString name="uni1EF4.sc">
          endchar
        </CharString>
        <CharString name="uni1EF5">
          endchar
        </CharString>
        <CharString name="uni1EF6">
          endchar
        </CharString>
        <CharString name="uni1EF6.sc">
          endchar
        </CharString>
        <CharString name="uni1EF7">
          endchar
        </CharString>
        <CharString name="uni1EF8">
          endchar
        </CharString>
        <CharString name="uni1EF8.sc">
          endchar
        </CharString>
        <CharString name="uni1EF9">
          endchar
        </CharString>
        <CharString name="uni1F00">
          endchar
        </CharString>
        <CharString name="uni1F01">
          endchar
        </CharString>
        <CharString name="uni1F02">
          endchar
        </CharString>
        <CharString name="uni1F03">
          endchar
        </CharString>
        <CharString name="uni1F04">
          endchar
        </CharString>
        <CharString name="uni1F05">
          endchar
        </CharString>
        <CharString name="uni1F06">
          endchar
        </CharString>
        <CharString name="uni1F07">
          endchar
        </CharString>
        <CharString name="uni1F08">
          endchar
        </CharString>
        <CharString name="uni1F09">
          endchar
        </CharString>
        <CharString name="uni1F0A">
          endchar
        </CharString>
        <CharString name="uni1F0B">
          endchar
        </CharString>
        <CharString name="uni1F0C">
          endchar
        </CharString>
        <CharString name="uni1F0D">
          endchar
        </CharString>
        <CharString name="uni1F0E">
          endchar
        </CharString>
        <CharString name="uni1F0F">
          endchar
        </CharString>
        <CharString name="uni1F10">
          endchar
        </CharString>
        <CharString name="uni1F11">
          endchar
        </CharString>
        <CharString name="uni1F12">
          endchar
        </CharString>
        <CharString name="uni1F13">
          endchar
        </CharString>
        <CharString name="uni1F14">
          endchar
        </CharString>
        <CharString name="uni1F15">
          endchar
        </CharString>
        <CharString name="uni1F18">
          endchar
        </CharString>
        <CharString name="uni1F19">
          endchar
        </CharString>
        <CharString name="uni1F1A">
          endchar
        </CharString>
        <CharString name="uni1F1B">
          endchar
        </CharString>
        <CharString name="uni1F1C">
          endchar
        </CharString>
        <CharString name="uni1F1D">
          endchar
        </CharString>
        <CharString name="uni1F20">
          endchar
        </CharString>
        <CharString name="uni1F21">
          endchar
        </CharString>
        <CharString name="uni1F22">
          endchar
        </CharString>
        <CharString name="uni1F23">
          endchar
        </CharString>
        <CharString name="uni1F24">
          endchar
        </CharString>
        <CharString name="uni1F25">
          endchar
        </CharString>
        <CharString name="uni1F26">
          endchar
        </CharString>
        <CharString name="uni1F27">
          endchar
        </CharString>
        <CharString name="uni1F28">
          endchar
        </CharString>
        <CharString name="uni1F29">
          endchar
        </CharString>
        <CharString name="uni1F2A">
          endchar
        </CharString>
        <CharString name="uni1F2B">
          endchar
        </CharString>
        <CharString name="uni1F2C">
          endchar
        </CharString>
        <CharString name="uni1F2D">
          endchar
        </CharString>
        <CharString name="uni1F2E">
          endchar
        </CharString>
        <CharString name="uni1F2F">
          endchar
        </CharString>
        <CharString name="uni1F30">
          endchar
        </CharString>
        <CharString name="uni1F31">
          endchar
        </CharString>
        <CharString name="uni1F32">
          endchar
        </CharString>
        <CharString name="uni1F33">
          endchar
        </CharString>
        <CharString name="uni1F34">
          endchar
        </CharString>
        <CharString name="uni1F35">
          endchar
        </CharString>
        <CharString name="uni1F36">
          endchar
        </CharString>
        <CharString name="uni1F37">
          endchar
        </CharString>
        <CharString name="uni1F38">
          endchar
        </CharString>
        <CharString name="uni1F39">
          endchar
        </CharString>
        <CharString name="uni1F3A">
          endchar
        </CharString>
        <CharString name="uni1F3B">
          endchar
        </CharString>
        <CharString name="uni1F3C">
          endchar
        </CharString>
        <CharString name="uni1F3D">
          endchar
        </CharString>
        <CharString name="uni1F3E">
          endchar
        </CharString>
        <CharString name="uni1F3F">
          endchar
        </CharString>
        <CharString name="uni1F40">
          endchar
        </CharString>
        <CharString name="uni1F41">
          endchar
        </CharString>
        <CharString name="uni1F42">
          endchar
        </CharString>
        <CharString name="uni1F43">
          endchar
        </CharString>
        <CharString name="uni1F44">
          endchar
        </CharString>
        <CharString name="uni1F45">
          endchar
        </CharString>
        <CharString name="uni1F48">
          endchar
        </CharString>
        <CharString name="uni1F49">
          endchar
        </CharString>
        <CharString name="uni1F4A">
          endchar
        </CharString>
        <CharString name="uni1F4B">
          endchar
        </CharString>
        <CharString name="uni1F4C">
          endchar
        </CharString>
        <CharString name="uni1F4D">
          endchar
        </CharString>
        <CharString name="uni1F50">
          endchar
        </CharString>
        <CharString name="uni1F51">
          endchar
        </CharString>
        <CharString name="uni1F52">
          endchar
        </CharString>
        <CharString name="uni1F53">
          endchar
        </CharString>
        <CharString name="uni1F54">
          endchar
        </CharString>
        <CharString name="uni1F55">
          endchar
        </CharString>
        <CharString name="uni1F56">
          endchar
        </CharString>
        <CharString name="uni1F57">
          endchar
        </CharString>
        <CharString name="uni1F59">
          endchar
        </CharString>
        <CharString name="uni1F5B">
          endchar
        </CharString>
        <CharString name="uni1F5D">
          endchar
        </CharString>
        <CharString name="uni1F5F">
          endchar
        </CharString>
        <CharString name="uni1F60">
          endchar
        </CharString>
        <CharString name="uni1F61">
          endchar
        </CharString>
        <CharString name="uni1F62">
          endchar
        </CharString>
        <CharString name="uni1F63">
          endchar
        </CharString>
        <CharString name="uni1F64">
          endchar
        </CharString>
        <CharString name="uni1F65">
          endchar
        </CharString>
        <CharString name="uni1F66">
          endchar
        </CharString>
        <CharString name="uni1F67">
          endchar
        </CharString>
        <CharString name="uni1F68">
          endchar
        </CharString>
        <CharString name="uni1F69">
          endchar
        </CharString>
        <CharString name="uni1F6A">
          endchar
        </CharString>
        <CharString name="uni1F6B">
          endchar
        </CharString>
        <CharString name="uni1F6C">
          endchar
        </CharString>
        <CharString name="uni1F6D">
          endchar
        </CharString>
        <CharString name="uni1F6E">
          endchar
        </CharString>
        <CharString name="uni1F6F">
          endchar
        </CharString>
        <CharString name="uni1F70">
          endchar
        </CharString>
        <CharString name="uni1F71">
          endchar
        </CharString>
        <CharString name="uni1F72">
          endchar
        </CharString>
        <CharString name="uni1F73">
          endchar
        </CharString>
        <CharString name="uni1F74">
          endchar
        </CharString>
        <CharString name="uni1F75">
          endchar
        </CharString>
        <CharString name="uni1F76">
          endchar
        </CharString>
        <CharString name="uni1F77">
          endchar
        </CharString>
        <CharString name="uni1F78">
          endchar
        </CharString>
        <CharString name="uni1F79">
          endchar
        </CharString>
        <CharString name="uni1F7A">
          endchar
        </CharString>
        <CharString name="uni1F7B">
          endchar
        </CharString>
        <CharString name="uni1F7C">
          endchar
        </CharString>
        <CharString name="uni1F7D">
          endchar
        </CharString>
        <CharString name="uni1F80">
          endchar
        </CharString>
        <CharString name="uni1F81">
          endchar
        </CharString>
        <CharString name="uni1F82">
          endchar
        </CharString>
        <CharString name="uni1F83">
          endchar
        </CharString>
        <CharString name="uni1F84">
          endchar
        </CharString>
        <CharString name="uni1F85">
          endchar
        </CharString>
        <CharString name="uni1F86">
          endchar
        </CharString>
        <CharString name="uni1F87">
          endchar
        </CharString>
        <CharString name="uni1F88">
          endchar
        </CharString>
        <CharString name="uni1F89">
          endchar
        </CharString>
        <CharString name="uni1F8A">
          endchar
        </CharString>
        <CharString name="uni1F8B">
          endchar
        </CharString>
        <CharString name="uni1F8C">
          endchar
        </CharString>
        <CharString name="uni1F8D">
          endchar
        </CharString>
        <CharString name="uni1F8E">
          endchar
        </CharString>
        <CharString name="uni1F8F">
          endchar
        </CharString>
        <CharString name="uni1F90">
          endchar
        </CharString>
        <CharString name="uni1F91">
          endchar
        </CharString>
        <CharString name="uni1F92">
          endchar
        </CharString>
        <CharString name="uni1F93">
          endchar
        </CharString>
        <CharString name="uni1F94">
          endchar
        </CharString>
        <CharString name="uni1F95">
          endchar
        </CharString>
        <CharString name="uni1F96">
          endchar
        </CharString>
        <CharString name="uni1F97">
          endchar
        </CharString>
        <CharString name="uni1F98">
          endchar
        </CharString>
        <CharString name="uni1F99">
          endchar
        </CharString>
        <CharString name="uni1F9A">
          endchar
        </CharString>
        <CharString name="uni1F9B">
          endchar
        </CharString>
        <CharString name="uni1F9C">
          endchar
        </CharString>
        <CharString name="uni1F9D">
          endchar
        </CharString>
        <CharString name="uni1F9E">
          endchar
        </CharString>
        <CharString name="uni1F9F">
          endchar
        </CharString>
        <CharString name="uni1FA0">
          endchar
        </CharString>
        <CharString name="uni1FA1">
          endchar
        </CharString>
        <CharString name="uni1FA2">
          endchar
        </CharString>
        <CharString name="uni1FA3">
          endchar
        </CharString>
        <CharString name="uni1FA4">
          endchar
        </CharString>
        <CharString name="uni1FA5">
          endchar
        </CharString>
        <CharString name="uni1FA6">
          endchar
        </CharString>
        <CharString name="uni1FA7">
          endchar
        </CharString>
        <CharString name="uni1FA8">
          endchar
        </CharString>
        <CharString name="uni1FA9">
          endchar
        </CharString>
        <CharString name="uni1FAA">
          endchar
        </CharString>
        <CharString name="uni1FAB">
          endchar
        </CharString>
        <CharString name="uni1FAC">
          endchar
        </CharString>
        <CharString name="uni1FAD">
          endchar
        </CharString>
        <CharString name="uni1FAE">
          endchar
        </CharString>
        <CharString name="uni1FAF">
          endchar
        </CharString>
        <CharString name="uni1FB0">
          endchar
        </CharString>
        <CharString name="uni1FB1">
          endchar
        </CharString>
        <CharString name="uni1FB2">
          endchar
        </CharString>
        <CharString name="uni1FB3">
          endchar
        </CharString>
        <CharString name="uni1FB4">
          endchar
        </CharString>
        <CharString name="uni1FB6">
          endchar
        </CharString>
        <CharString name="uni1FB7">
          endchar
        </CharString>
        <CharString name="uni1FB8">
          endchar
        </CharString>
        <CharString name="uni1FB9">
          endchar
        </CharString>
        <CharString name="uni1FBA">
          endchar
        </CharString>
        <CharString name="uni1FBB">
          endchar
        </CharString>
        <CharString name="uni1FBC">
          endchar
        </CharString>
        <CharString name="uni1FBD">
          endchar
        </CharString>
        <CharString name="uni1FBD.cap">
          endchar
        </CharString>
        <CharString name="uni1FBE">
          endchar
        </CharString>
        <CharString name="uni1FBF">
          endchar
        </CharString>
        <CharString name="uni1FC0">
          endchar
        </CharString>
        <CharString name="uni1FC1">
          endchar
        </CharString>
        <CharString name="uni1FC2">
          endchar
        </CharString>
        <CharString name="uni1FC3">
          endchar
        </CharString>
        <CharString name="uni1FC4">
          endchar
        </CharString>
        <CharString name="uni1FC6">
          endchar
        </CharString>
        <CharString name="uni1FC7">
          endchar
        </CharString>
        <CharString name="uni1FC8">
          endchar
        </CharString>
        <CharString name="uni1FC9">
          endchar
        </CharString>
        <CharString name="uni1FCA">
          endchar
        </CharString>
        <CharString name="uni1FCB">
          endchar
        </CharString>
        <CharString name="uni1FCC">
          endchar
        </CharString>
        <CharString name="uni1FCD">
          endchar
        </CharString>
        <CharString name="uni1FCD.cap">
          endchar
        </CharString>
        <CharString name="uni1FCE">
          endchar
        </CharString>
        <CharString name="uni1FCE.cap">
          endchar
        </CharString>
        <CharString name="uni1FCF">
          endchar
        </CharString>
        <CharString name="uni1FCF.cap">
          endchar
        </CharString>
        <CharString name="uni1FD0">
          endchar
        </CharString>
        <CharString name="uni1FD1">
          endchar
        </CharString>
        <CharString name="uni1FD2">
          endchar
        </CharString>
        <CharString name="uni1FD3">
          endchar
        </CharString>
        <CharString name="uni1FD6">
          endchar
        </CharString>
        <CharString name="uni1FD7">
          endchar
        </CharString>
        <CharString name="uni1FD8">
          endchar
        </CharString>
        <CharString name="uni1FD9">
          endchar
        </CharString>
        <CharString name="uni1FDA">
          endchar
        </CharString>
        <CharString name="uni1FDB">
          endchar
        </CharString>
        <CharString name="uni1FDD">
          endchar
        </CharString>
        <CharString name="uni1FDD.cap">
          endchar
        </CharString>
        <CharString name="uni1FDE">
          endchar
        </CharString>
        <CharString name="uni1FDE.cap">
          endchar
        </CharString>
        <CharString name="uni1FDF">
          endchar
        </CharString>
        <CharString name="uni1FDF.cap">
          endchar
        </CharString>
        <CharString name="uni1FE0">
          endchar
        </CharString>
        <CharString name="uni1FE1">
          endchar
        </CharString>
        <CharString name="uni1FE2">
          endchar
        </CharString>
        <CharString name="uni1FE3">
          endchar
        </CharString>
        <CharString name="uni1FE4">
          endchar
        </CharString>
        <CharString name="uni1FE5">
          endchar
        </CharString>
        <CharString name="uni1FE6">
          endchar
        </CharString>
        <CharString name="uni1FE7">
          endchar
        </CharString>
        <CharString name="uni1FE8">
          endchar
        </CharString>
        <CharString name="uni1FE9">
          endchar
        </CharString>
        <CharString name="uni1FEA">
          endchar
        </CharString>
        <CharString name="uni1FEB">
          endchar
        </CharString>
        <CharString name="uni1FEC">
          endchar
        </CharString>
        <CharString name="uni1FED">
          endchar
        </CharString>
        <CharString name="uni1FEE">
          endchar
        </CharString>
        <CharString name="uni1FEF">
          endchar
        </CharString>
        <CharString name="uni1FEF.cap">
          endchar
        </CharString>
        <CharString name="uni1FF2">
          endchar
        </CharString>
        <CharString name="uni1FF3">
          endchar
        </CharString>
        <CharString name="uni1FF4">
          endchar
        </CharString>
        <CharString name="uni1FF6">
          endchar
        </CharString>
        <CharString name="uni1FF7">
          endchar
        </CharString>
        <CharString name="uni1FF8">
          endchar
        </CharString>
        <CharString name="uni1FF9">
          endchar
        </CharString>
        <CharString name="uni1FFA">
          endchar
        </CharString>
        <CharString name="uni1FFB">
          endchar
        </CharString>
        <CharString name="uni1FFC">
          endchar
        </CharString>
        <CharString name="uni1FFD">
          endchar
        </CharString>
        <CharString name="uni1FFD.cap">
          endchar
        </CharString>
        <CharString name="uni1FFE">
          endchar
        </CharString>
        <CharString name="uni1FFE.cap">
          endchar
        </CharString>
        <CharString name="uni2015">
          endchar
        </CharString>
        <CharString name="uni2016">
          endchar
        </CharString>
        <CharString name="uni203C">
          endchar
        </CharString>
        <CharString name="uni203D">
          endchar
        </CharString>
        <CharString name="uni203E">
          endchar
        </CharString>
        <CharString name="uni203F">
          endchar
        </CharString>
        <CharString name="uni2047">
          endchar
        </CharString>
        <CharString name="uni2048">
          endchar
        </CharString>
        <CharString name="uni2049">
          endchar
        </CharString>
        <CharString name="uni20A6">
          endchar
        </CharString>
        <CharString name="uni20A9">
          endchar
        </CharString>
        <CharString name="uni20AE">
          endchar
        </CharString>
        <CharString name="uni20B1">
          endchar
        </CharString>
        <CharString name="uni20B2">
          endchar
        </CharString>
        <CharString name="uni20B4">
          endchar
        </CharString>
        <CharString name="uni20B5">
          endchar
        </CharString>
        <CharString name="uni20B8">
          endchar
        </CharString>
        <CharString name="uni20B9">
          endchar
        </CharString>
        <CharString name="uni20BA">
          endchar
        </CharString>
        <CharString name="uni20BD">
          endchar
        </CharString>
        <CharString name="uni2116">
          endchar
        </CharString>
        <CharString name="uni2117">
          endchar
        </CharString>
        <CharString name="uni2120">
          endchar
        </CharString>
        <CharString name="uni2150">
          endchar
        </CharString>
        <CharString name="uni2151">
          endchar
        </CharString>
        <CharString name="uni2152">
          endchar
        </CharString>
        <CharString name="uni2155">
          endchar
        </CharString>
        <CharString name="uni2156">
          endchar
        </CharString>
        <CharString name="uni2157">
          endchar
        </CharString>
        <CharString name="uni2158">
          endchar
        </CharString>
        <CharString name="uni2159">
          endchar
        </CharString>
        <CharString name="uni215A">
          endchar
        </CharString>
        <CharString name="uni2189">
          endchar
        </CharString>
        <CharString name="uni2215">
          endchar
        </CharString>
        <CharString name="uni231C">
          endchar
        </CharString>
        <CharString name="uni231D">
          endchar
        </CharString>
        <CharString name="uni231E">
          endchar
        </CharString>
        <CharString name="uni231F">
          endchar
        </CharString>
        <CharString name="uni27E6">
          endchar
        </CharString>
        <CharString name="uni27E7">
          endchar
        </CharString>
        <CharString name="uni2E22">
          endchar
        </CharString>
        <CharString name="uni2E23">
          endchar
        </CharString>
        <CharString name="uni2E24">
          endchar
        </CharString>
        <CharString name="uni2E25">
          endchar
        </CharString>
        <CharString name="uni2E3A">
          endchar
        </CharString>
        <CharString name="uni2E3B">
          endchar
        </CharString>
        <CharString name="uogonek">
          endchar
        </CharString>
        <CharString name="upsilon">
          endchar
        </CharString>
        <CharString name="upsilondieresis">
          endchar
        </CharString>
        <CharString name="upsilondieresistonos">
          endchar
        </CharString>
        <CharString name="upsilontonos">
          endchar
        </CharString>
        <CharString name="uring">
          endchar
        </CharString>
        <CharString name="utilde">
          endchar
        </CharString>
        <CharString name="v">
          endchar
        </CharString>
        <CharString name="v.sups">
          endchar
        </CharString>
        <CharString name="w">
          endchar
        </CharString>
        <CharString name="w.sups">
          endchar
        </CharString>
        <CharString name="wacute">
          endchar
        </CharString>
        <CharString name="wcircumflex">
          endchar
        </CharString>
        <CharString name="wdieresis">
          endchar
        </CharString>
        <CharString name="wgrave">
          endchar
        </CharString>
        <CharString name="x">
          endchar
        </CharString>
        <CharString name="x.sups">
          endchar
        </CharString>
        <CharString name="xi">
          endchar
        </CharString>
        <CharString name="y">
          endchar
        </CharString>
        <CharString name="y.sups">
          endchar
        </CharString>
        <CharString name="yacute">
          endchar
        </CharString>
        <CharString name="ycircumflex">
          endchar
        </CharString>
        <CharString name="ydieresis">
          endchar
        </CharString>
        <CharString name="yen">
          endchar
        </CharString>
        <CharString name="yen.CN">
          endchar
        </CharString>
        <CharString name="ygrave">
          endchar
        </CharString>
        <CharString name="z">
          endchar
        </CharString>
        <CharString name="z.sups">
          endchar
        </CharString>
        <CharString name="zacute">
          endchar
        </CharString>
        <CharString name="zcaron">
          endchar
        </CharString>
        <CharString name="zdotaccent">
          endchar
        </CharString>
        <CharString name="zero">
          endchar
        </CharString>
        <CharString name="zero.0">
          endchar
        </CharString>
        <CharString name="zero.0p">
          endchar
        </CharString>
        <CharString name="zero.0ps">
          endchar
        </CharString>
        <CharString name="zero.0s">
          endchar
        </CharString>
        <CharString name="zero.cap">
          endchar
        </CharString>
        <CharString name="zero.dnom">
          endchar
        </CharString>
        <CharString name="zero.numr">
          endchar
        </CharString>
        <CharString name="zero.onum">
          endchar
        </CharString>
        <CharString name="zero.pnum">
          endchar
        </CharString>
        <CharString name="zero.sc">
          endchar
        </CharString>
        <CharString name="zero.subs">
          endchar
        </CharString>
        <CharString name="zero.sups">
          endchar
        </CharString>
        <CharString name="zero.tnum">
          endchar
        </CharString>
        <CharString name="zeta">
          endchar
        </CharString>
      <CharString index="0">
        rmoveto
        152 115 -47 55 -142 -128 rlineto
        endchar
      </CharString>
      <CharString index="1">
        323 -12 rmoveto
        134 101 72 211 hvcurveto
        385 -80 -387 vlineto
        -107 callsubr
        return
      </CharString>
      <CharString index="2">
        -158 -68 -50 -87 -86 -67 50 158 vhcurveto
        387 -83 -385 vlineto
        return
      </CharString>
      <CharString index="3">
        -106 callgsubr
        return
      </CharString>
      <CharString index="4">
        -165 -115 -127 -210 return
      </CharString>
      <CharString index="5">
        -104 callgsubr
        return
      </CharString>
      <CharString index="6">
        rlineto
        4 hlineto
        return
      </CharString>
      <CharString index="7">
        -77 -106 -117 return
      </CharString>
</ttFont>
